<svg xmlns="http://www.w3.org/2000/svg" xmlns:xlink="http://www.w3.org/1999/xlink" width="198" height="44" viewBox="0 0 198 44"><defs><clipPath id="a"><rect width="141" height="36" fill="#262626"/></clipPath><clipPath id="b"><rect width="48" height="44" transform="translate(0.013 -0.162)" fill="#1a53ff"/></clipPath></defs><g transform="translate(-3298 -941)"><g transform="translate(2668.271 -1127)"><g transform="translate(686.73 2076)" clip-path="url(#a)"><path d="M942.424,2095.354A5.627,5.627,0,0,0,936.7,2091H924.375l-.505,3.6h12.076a3.074,3.074,0,0,1,2.434,1.072,2.282,2.282,0,0,1-1.758,3.728h-8a7.611,7.611,0,0,0-7.3,6.4l-.393,2.8a5.432,5.432,0,0,0,5.5,6.4h5.6a8.888,8.888,0,0,0,4.583-1.322l-.185,1.322h3.6l1.124-8,1.067-7.6.281-2h0A5.815,5.815,0,0,0,942.424,2095.354ZM938.115,2103l-.225,1.6-.337,2.4a5.24,5.24,0,0,1-5.016,4.4h-5.6a2.379,2.379,0,0,1-2.406-2.8l.393-2.8a3.334,3.334,0,0,1,3.192-2.8h8a6,6,0,0,0,2.051-.368Z" transform="translate(-827.264 -2085)" fill="#262626"/><path d="M811,2091h-7.2a7.611,7.611,0,0,0-7.3,6.4l-.534,3.8-.505,3.6-.534,3.8a5.432,5.432,0,0,0,5.5,6.4h7.2a7.611,7.611,0,0,0,7.3-6.4l.028-.2h-3.6l-.028.2a3.333,3.333,0,0,1-3.192,2.8h-7.2a2.379,2.379,0,0,1-2.406-2.8l.534-3.8H815.46l.505-3.6.534-3.8A5.432,5.432,0,0,0,811,2091Zm-11.428,10.2.534-3.8a3.333,3.333,0,0,1,3.192-2.8h7.2a2.379,2.379,0,0,1,2.406,2.8l-.534,3.8Z" transform="translate(-751.638 -2085)" fill="#262626"/><path d="M749,2091h-7.2a7.611,7.611,0,0,0-7.3,6.4l-.534,3.8-.505,3.6-.534,3.8a5.432,5.432,0,0,0,5.5,6.4h7.2a7.611,7.611,0,0,0,7.3-6.4l.028-.2h-3.6l-.028.2a3.333,3.333,0,0,1-3.192,2.8h-7.2a2.379,2.379,0,0,1-2.406-2.8l.534-3.8H753.46l.505-3.6.534-3.8A5.432,5.432,0,0,0,749,2091Zm-11.428,10.2.534-3.8a3.333,3.333,0,0,1,3.192-2.8h7.2a2.379,2.379,0,0,1,2.406,2.8l-.534,3.8Z" transform="translate(-714.425 -2085)" fill="#262626"/><path d="M702.938,2076h-8l-.562,4h4l-1.911,13.6-.73,5.2a3.811,3.811,0,0,1-3.648,3.2h-4.8l-.562,4h4.8a8.564,8.564,0,0,0,8.208-7.2l2.641-18.8h0Z" transform="translate(-686.73 -2076)" fill="#262626"/><path d="M1001.279,2091l-.506,3.6-.73,5.2-1.067,7.6-.169,1.2a3.334,3.334,0,0,1-3.192,2.8h-7.2a2.379,2.379,0,0,1-2.405-2.8l1.236-8.8.73-5.2.506-3.6h-3.6l-2.472,17.6a5.432,5.432,0,0,0,5.5,6.4h7.2a6.958,6.958,0,0,0,2.89-.652l-.092.652a2.854,2.854,0,0,1-2.736,2.4H982.379l-.506,3.6h12.793a7.136,7.136,0,0,0,6.84-6l.9-6.4.169-1.2,2.3-16.4Z" transform="translate(-863.877 -2085)" fill="#262626"/><path d="M872.537,2091h-7.2a6.958,6.958,0,0,0-2.89.652l.091-.652h-3.6l-.9,6.4-1.574,11.2L854.73,2121h3.6l.934-6.652a5.789,5.789,0,0,0,2.707.652h7.2a7.611,7.611,0,0,0,7.3-6.4l1.574-11.2A5.432,5.432,0,0,0,872.537,2091Zm.326,17.6a3.333,3.333,0,0,1-3.192,2.8h-7.2a2.379,2.379,0,0,1-2.406-2.8l1.574-11.2a3.334,3.334,0,0,1,3.192-2.8h7.2a2.379,2.379,0,0,1,2.406,2.8Z" transform="translate(-787.565 -2085)" fill="#262626"/></g></g><g transform="translate(267.246 -836.852)"><g transform="translate(3030.741 1778.014)" clip-path="url(#b)"><path d="M3045.511,1838h0l-6.29,5.493a3.121,3.121,0,0,0,2.066,5.471h11.29a1.094,1.094,0,0,0,.833-1.808Z" transform="translate(-3034.172 -1805.125)" fill="#1a53ff" opacity="0.5"/><path d="M3034.916,1783.662l-4.332,30.7a6.588,6.588,0,0,0,6.541,7.494h2.454a1.1,1.1,0,0,0,1.089-.943l1.148-8.134a2.2,2.2,0,0,1,2.177-1.886h7.184a2.2,2.2,0,0,0,2.179-1.886l1.014-7.189a2.2,2.2,0,0,1,2.18-1.887h6.562a2.2,2.2,0,0,1,2.18,2.5l-1.194,8.465-1.371,9.717a1.1,1.1,0,0,0,1.087,1.246h4a6.6,6.6,0,0,0,6.541-5.662l4.332-30.7a6.586,6.586,0,0,0-6.54-7.492h-30.694A6.6,6.6,0,0,0,3034.916,1783.662Zm29.588,10.782h-6.559a2.2,2.2,0,0,1-2.182-2.5l.928-6.574a2.2,2.2,0,0,1,2.182-1.889h6.557a2.2,2.2,0,0,1,2.183,2.5l-.928,6.574A2.2,2.2,0,0,1,3064.5,1794.445Z" transform="translate(-3030.743 -1778.014)" fill="#1a53ff"/></g></g></g></svg>