<svg version="1.1" id="Layer_1" xmlns="http://www.w3.org/2000/svg" xmlns:xlink="http://www.w3.org/1999/xlink" x="0px" y="0px"
	 width="100%" viewBox="0 0 1920 970" enable-background="new 0 0 1920 970" xml:space="preserve">
<path fill="#F2F8FF" opacity="1.000000" stroke="none" 
	d="
M1623.059082,970.615356 
	C1083.874634,971.000000 544.749329,970.996399 5.623996,971.078430 
	C2.103531,971.078979 0.888085,970.650085 0.889594,966.624634 
	C1.009730,646.149231 1.008764,325.673828 0.893364,5.198413 
	C0.892015,1.451478 1.834794,0.915018 5.300985,0.915496 
	C642.418762,1.003252 1279.536621,1.005118 1916.654419,0.887070 
	C1920.740601,0.886313 1921.076782,2.178220 1921.075928,5.653784 
	C1920.994019,325.962524 1920.990845,646.271301 1921.104980,966.580017 
	C1921.106445,970.510132 1920.022339,971.091858 1916.420410,971.086182 
	C1843.259399,970.971252 1770.098389,971.000000 1696.468628,971.000000 
	C1695.407837,970.205383 1695.636108,969.321777 1695.768066,968.124634 
	C1695.887817,967.355591 1695.978394,966.918579 1696.162598,966.154663 
	C1696.409180,965.156738 1696.625366,964.499634 1696.747925,963.451172 
	C1697.014282,961.833008 1697.490845,960.690918 1698.596313,959.434387 
	C1704.636963,954.440857 1707.876099,947.685852 1712.592041,942.123474 
	C1719.406006,934.086609 1719.613525,923.678162 1722.578369,914.285889 
	C1726.730103,901.133057 1729.709717,887.641052 1733.527100,874.378296 
	C1737.020752,862.240173 1740.530884,850.090393 1743.467896,837.791504 
	C1744.896729,831.808289 1746.536133,825.876038 1748.446655,819.632568 
	C1748.599365,818.533203 1748.701416,817.806641 1748.936523,816.750244 
	C1749.333740,814.797546 1750.438721,812.921082 1747.330322,812.297302 
	C1746.596924,812.151306 1746.187500,812.038086 1745.495728,811.784607 
	C1744.501343,811.298035 1743.824341,810.855469 1742.691162,810.790039 
	C1741.318359,810.748901 1740.343384,810.401978 1739.144531,809.739197 
	C1738.194946,809.122437 1737.612427,808.496643 1736.433838,808.304932 
	C1734.596558,807.964355 1733.105469,807.575012 1731.387695,806.799500 
	C1729.865356,805.800232 1728.847534,804.595093 1726.915894,804.352356 
	C1725.932007,804.215515 1725.289429,804.056580 1724.354004,803.718872 
	C1722.648560,802.598816 1721.257324,801.583862 1719.070068,801.785767 
	C1717.609619,801.837097 1716.567017,801.509583 1715.285034,800.842285 
	C1714.279785,800.199951 1713.526001,799.807800 1712.282104,799.785522 
	C1710.412720,799.525085 1709.162354,798.850586 1708.181641,797.151611 
	C1707.046143,789.073669 1707.691772,781.289551 1705.959106,773.515076 
	C1701.418213,753.140869 1687.822144,742.218567 1669.017212,736.387085 
	C1659.798706,733.528320 1650.153564,733.704956 1640.765015,734.629700 
	C1628.794800,735.808838 1619.715698,742.120544 1613.906616,752.976990 
	C1610.707520,758.955688 1609.704346,759.068298 1603.141602,756.671387 
	C1590.513550,752.059143 1578.054077,747.004883 1565.456909,742.308838 
	C1561.852295,740.965149 1559.778809,741.295959 1559.168701,745.424927 
	C1558.974365,746.740479 1558.083984,747.911438 1557.919312,749.204590 
	C1556.957642,756.752625 1554.606934,763.342041 1546.649048,766.747803 
	C1546.448975,768.077515 1546.260132,769.035095 1545.876221,770.316162 
	C1545.411133,771.516968 1544.694458,772.189270 1544.459717,773.471985 
	C1544.240356,775.959167 1543.997314,778.087219 1542.968140,780.402283 
	C1542.413208,781.546814 1541.695923,782.196533 1541.441162,783.471802 
	C1541.123901,785.944519 1540.669800,788.031799 1539.879150,790.409180 
	C1539.365601,791.617188 1538.616943,792.299500 1538.382812,793.643738 
	C1532.408691,812.548889 1526.496094,831.089844 1520.669434,849.655640 
	C1513.746094,871.716553 1506.553955,893.693665 1499.880615,915.834839 
	C1498.619629,920.018433 1500.791870,921.165039 1503.836914,922.327148 
	C1527.628662,931.406921 1551.256958,940.906189 1575.018433,950.063843 
	C1589.304932,955.569885 1603.500000,961.309875 1617.774780,966.846741 
	C1619.748169,967.612183 1621.989624,968.078003 1623.059082,970.615356 
z"/>
<path fill="#E2D0D4" opacity="1.000000" stroke="none" 
	d="
M1538.719849,791.144165 
	C1539.269775,788.562866 1539.655396,786.209290 1540.061035,783.454712 
	C1540.545532,782.466675 1541.076660,781.938721 1541.739380,781.153442 
	C1542.296143,778.579773 1542.680176,776.226868 1543.081787,773.468628 
	C1543.546753,772.462769 1544.081665,771.938599 1544.749634,771.158875 
	C1544.963379,769.905579 1544.999878,768.869202 1545.056885,767.444580 
	C1547.011841,765.221558 1549.024414,765.947754 1551.066406,766.844299 
	C1555.006470,768.574097 1559.157593,769.765015 1563.086060,771.525940 
	C1564.469360,772.145935 1565.846802,772.753784 1567.688843,771.672363 
	C1577.076538,773.589111 1585.462280,777.328613 1594.049561,781.505859 
	C1595.360352,784.420776 1593.885254,786.629333 1592.851929,788.738220 
	C1590.693726,793.143677 1588.973877,797.719421 1586.925293,802.558960 
	C1584.903931,805.188232 1585.283203,807.297791 1587.713501,808.723938 
	C1590.297729,810.240540 1592.296753,808.736145 1593.481812,806.557495 
	C1596.091187,801.759888 1597.629639,796.446594 1600.427002,791.720947 
	C1601.599487,789.740295 1602.369751,787.456482 1605.055054,786.299316 
	C1606.947632,785.848206 1608.345215,786.337341 1609.745850,786.895630 
	C1630.986572,795.361938 1652.535156,803.021484 1673.831177,811.342957 
	C1675.995850,812.188843 1678.134521,813.081055 1680.281250,814.778564 
	C1682.840820,821.985107 1680.028931,828.543762 1679.159302,835.233948 
	C1678.714478,838.656799 1677.474609,842.170654 1680.774658,845.339233 
	C1685.156372,846.417908 1685.757324,843.181946 1686.335205,840.655396 
	C1687.436646,835.839417 1688.323853,830.952820 1688.627808,825.995422 
	C1688.749878,824.006042 1688.906006,822.032898 1690.367798,820.051575 
	C1692.809937,818.404358 1694.803345,819.551453 1696.805176,820.281372 
	C1707.119751,824.041870 1717.136597,828.613647 1727.718018,831.645691 
	C1729.592773,832.182861 1731.473511,833.263611 1733.777954,831.697754 
	C1735.892456,831.156982 1737.339111,831.921814 1737.526245,833.569214 
	C1738.151367,839.073364 1739.639771,844.511169 1737.298828,850.123047 
	C1731.677246,863.599670 1726.182251,877.300720 1723.102051,891.480286 
	C1719.156006,909.646606 1710.875366,926.141174 1705.518799,943.709717 
	C1703.887207,949.060303 1702.771851,954.674072 1699.306885,959.749329 
	C1698.699219,961.121094 1698.343994,962.197266 1697.967285,963.617920 
	C1697.549561,964.392212 1697.185303,964.842346 1696.980957,965.707520 
	C1696.934692,966.426880 1696.927612,966.857788 1696.906372,967.611633 
	C1696.222290,968.706726 1695.763672,969.599304 1695.201416,970.773865 
	C1671.312378,971.000000 1647.624878,971.000000 1623.468628,971.000000 
	C1614.494507,966.053101 1604.982910,963.536987 1595.952271,959.863770 
	C1578.934692,952.941956 1561.845093,946.195007 1544.740112,939.491089 
	C1530.710815,933.992493 1516.657104,928.549561 1502.524780,923.323853 
	C1498.191284,921.721436 1496.792236,920.327393 1498.623779,915.154541 
	C1503.916016,900.208008 1508.188354,884.902039 1512.943970,869.763245 
	C1518.281006,852.773987 1523.714355,835.814941 1529.094727,818.839294 
	C1531.738770,810.497314 1534.358154,802.147583 1537.012329,793.413879 
	C1537.542969,792.475342 1538.066040,791.939026 1538.719849,791.144165 
z"/>
<path fill="#EAE0EB" opacity="1.000000" stroke="none" 
	d="
M1695.250000,971.000000 
	C1695.049072,969.877930 1694.832397,968.642761 1696.564087,968.015991 
	C1696.676147,968.755920 1696.460083,969.577209 1696.122070,970.699280 
	C1696.000000,971.000000 1695.500000,971.000000 1695.250000,971.000000 
z"/>
<path fill="#EAE0EB" opacity="1.000000" stroke="none" 
	d="
M626.621094,335.686829 
	C615.047485,340.711731 604.444519,346.828583 593.521790,352.308685 
	C562.891052,367.676422 532.182861,382.890625 501.617920,398.387756 
	C496.309906,401.078979 490.627014,403.158630 485.694916,406.403198 
	C478.887817,410.881317 468.660309,406.977325 464.058228,401.197357 
	C456.826508,392.114868 453.333313,381.091064 448.099152,370.983856 
	C439.068237,353.545044 430.488464,335.870880 421.842255,318.235229 
	C416.530609,307.401123 411.534760,296.412354 406.238037,285.570770 
	C400.414825,273.651520 394.400909,261.825470 388.485077,249.951355 
	C382.799652,238.539688 376.637115,227.332184 371.601776,215.639816 
	C366.797546,204.483994 367.604614,193.469528 381.244690,186.247742 
	C403.125183,174.663040 424.628418,162.367508 446.338501,150.458755 
	C466.054871,139.643631 485.838287,128.950729 505.585083,118.190895 
	C524.735413,107.756073 543.917786,97.379227 563.010254,86.839439 
	C581.821533,76.454895 600.537720,65.897903 619.295593,55.416584 
	C623.808228,52.895065 628.446167,50.538982 633.412903,49.172192 
	C641.966736,46.818302 647.074402,52.642509 651.905640,58.050571 
	C657.175720,63.949932 659.702026,71.555588 663.184998,78.531219 
	C671.844055,95.873718 680.989746,113.022079 688.615967,130.815872 
	C694.631042,144.850601 702.265564,158.009323 708.623596,171.839813 
	C714.977600,185.661530 721.663940,199.356384 728.717346,212.867950 
	C735.701111,226.245956 741.701477,240.133804 748.450806,253.639252 
	C751.849243,260.439514 749.831116,271.444824 743.643921,275.571960 
	C740.352905,277.767151 736.953979,279.847229 733.431641,281.641083 
	C714.952576,291.051941 696.412476,300.342682 677.905396,309.698608 
	C660.914429,318.288116 643.938599,326.907379 626.621094,335.686829 
z"/>
<path fill="#EDE6EC" opacity="1.000000" stroke="none" 
	d="
M1340.696411,316.527039 
	C1344.379395,330.697418 1341.423096,343.672607 1336.269653,356.529175 
	C1329.278320,373.970978 1318.719604,389.314087 1308.426392,404.807861 
	C1304.151489,411.242584 1301.508423,411.504761 1296.757935,406.152954 
	C1280.993530,388.393524 1265.759644,370.226501 1255.297607,348.621643 
	C1248.134521,333.829529 1247.692505,319.269318 1256.536621,304.980713 
	C1261.351318,297.202057 1268.810547,292.557770 1276.594116,288.296997 
	C1287.926147,282.093872 1299.589722,281.579895 1311.709961,285.719727 
	C1314.694458,286.739105 1317.316528,288.138611 1319.003906,290.651123 
	C1323.866333,297.890472 1329.671631,304.162842 1336.730835,309.293915 
	C1339.021973,310.959381 1339.746094,313.602875 1340.696411,316.527039 
z"/>
<path fill="#D3E1F9" opacity="1.000000" stroke="none" 
	d="
M242.263062,753.720459 
	C237.690842,752.947510 234.419479,749.973877 230.703171,747.839417 
	C220.618378,742.047363 210.672195,736.010498 200.519775,730.341675 
	C197.269363,728.526733 197.004135,726.528137 198.297394,723.464355 
	C209.853500,696.088135 221.330215,668.678528 232.890625,641.304138 
	C235.397720,635.367432 235.622772,635.386230 243.827469,638.921143 
	C244.131271,639.433228 244.227097,639.638916 244.265411,640.179749 
	C242.843079,643.297180 241.054520,645.877136 240.123993,649.231689 
	C239.829025,650.850098 239.264557,652.507263 240.793350,653.075195 
	C242.514954,653.714722 242.822617,651.773682 243.422806,650.735046 
	C248.156021,642.544128 246.743851,641.288879 257.243530,646.763672 
	C260.271423,648.342407 263.840027,649.162292 265.939697,652.661865 
	C266.357574,657.030762 263.708221,660.466614 264.005829,664.559326 
	C270.009186,652.842224 273.069733,640.109436 276.904419,627.569885 
	C279.179657,632.397827 276.236450,636.715576 275.281982,641.036194 
	C273.311646,649.955627 272.936218,649.869995 280.643311,654.377808 
	C283.191772,655.868408 285.731049,657.374756 288.625488,658.901794 
	C290.403778,658.877991 291.432709,659.508850 292.182312,661.126160 
	C291.334076,663.246704 289.807037,662.797852 288.321381,662.601624 
	C282.367218,661.815247 281.696198,662.185364 279.338837,667.758057 
	C271.559174,686.148926 263.686249,704.499756 256.197601,723.013977 
	C252.516479,732.114746 248.532288,741.094910 244.598663,750.092529 
	C244.064560,751.314148 243.607986,752.573914 242.263062,753.720459 
z"/>
<path fill="#C7CFE1" opacity="1.000000" stroke="none" 
	d="
M242.405762,754.049438 
	C246.499817,740.608032 252.864258,727.994690 258.117981,714.920288 
	C264.419647,699.237976 271.311951,683.794006 277.784241,668.178711 
	C281.231506,659.861694 281.080475,659.801575 290.120361,661.819763 
	C290.546478,661.914795 291.059296,661.621460 291.752808,661.240234 
	C292.146027,660.853760 292.318146,660.735962 292.735718,660.812195 
	C297.216461,662.993835 297.503021,666.401855 296.687836,670.480713 
	C292.125549,693.308044 287.475281,716.121155 283.293945,739.019226 
	C282.198456,745.018311 280.773804,750.977173 280.062958,757.044373 
	C279.826263,759.064697 279.205048,760.259888 276.985046,759.747498 
	C265.711182,757.145691 254.193710,756.028198 242.405762,754.049438 
z"/>
<path fill="#EAE0EB" opacity="1.000000" stroke="none" 
	d="
M1567.769531,771.740601 
	C1566.828857,775.702271 1564.663330,773.527649 1562.850098,772.894592 
	C1557.198242,770.921509 1551.969727,767.729492 1545.478516,767.037476 
	C1545.201172,763.781677 1547.761841,763.046936 1550.181152,762.505371 
	C1552.860229,761.905701 1554.266846,760.299561 1554.554932,757.784729 
	C1555.121094,752.841553 1556.989746,748.243347 1558.115845,743.451599 
	C1558.857666,740.295654 1559.877319,738.648499 1563.967407,740.319946 
	C1577.750366,745.952881 1591.766968,751.013000 1605.672852,756.347473 
	C1608.599609,757.470215 1610.434326,757.223938 1611.992920,753.942078 
	C1618.508423,740.223083 1629.573975,733.362244 1644.751953,733.008118 
	C1656.104736,732.743286 1667.314697,733.125732 1677.969360,737.840698 
	C1684.811279,740.868408 1690.054565,745.810730 1695.474121,750.771545 
	C1699.627686,754.573608 1703.075684,758.563293 1704.777832,763.901062 
	C1708.121460,774.387512 1709.797729,785.109009 1708.932861,796.620850 
	C1707.903076,798.007812 1706.627197,798.056763 1705.705811,797.326721 
	C1703.051758,795.224182 1699.664551,794.718445 1696.664062,792.658325 
	C1696.051636,789.818787 1696.558838,787.335266 1696.676636,784.859131 
	C1697.418091,769.273560 1690.432251,757.379761 1678.184204,748.824646 
	C1666.166504,740.430481 1652.791382,736.633179 1638.020386,741.363342 
	C1633.916626,742.677551 1630.369507,744.662415 1627.650146,747.941833 
	C1622.783447,753.810852 1616.022217,757.189941 1609.686523,761.621338 
	C1594.427979,756.079041 1579.985718,749.320007 1563.901978,744.226868 
	C1565.300171,748.336914 1566.493530,751.410095 1567.570801,754.514771 
	C1569.270264,759.412842 1568.434814,761.035583 1563.320312,762.360291 
	C1560.431396,763.108521 1557.449585,763.520752 1554.280762,764.842102 
	C1558.429199,768.079224 1563.803833,768.220764 1567.769531,771.740601 
z"/>
<path fill="#D3C6CA" opacity="1.000000" stroke="none" 
	d="
M1696.707397,791.665527 
	C1701.238525,792.543396 1704.512207,795.240417 1708.550293,797.067139 
	C1710.056030,797.701477 1711.197876,798.308411 1712.669922,798.945862 
	C1713.593628,799.013123 1714.131836,799.198547 1714.809570,799.773193 
	C1716.115479,800.304871 1717.211182,800.636414 1718.648193,801.022705 
	C1720.632202,801.131958 1722.019897,801.975342 1723.747925,802.771729 
	C1724.703491,803.057434 1725.410156,803.107605 1726.469971,803.186401 
	C1728.069580,803.985779 1729.353027,804.696899 1730.800293,805.734192 
	C1732.728149,806.322876 1734.415283,806.709290 1736.473877,807.134521 
	C1737.529419,807.517639 1738.038818,808.083191 1738.828369,808.749573 
	C1740.131592,809.280334 1741.218750,809.629211 1742.647461,810.024780 
	C1743.586792,810.051453 1744.128418,810.208984 1744.803101,810.790283 
	C1745.418457,811.028809 1745.832031,811.060059 1746.555908,811.112976 
	C1747.521240,811.644226 1747.731567,812.336243 1747.580566,813.484558 
	C1743.907959,816.849976 1739.231445,816.812866 1735.088989,818.193909 
	C1727.816650,820.618530 1727.597412,820.751892 1731.715332,826.914734 
	C1731.989014,827.324463 1732.225830,827.758057 1732.635010,828.491638 
	C1733.222534,829.622192 1733.646973,830.447144 1733.946655,831.685669 
	C1734.246826,835.800842 1731.955444,834.420166 1730.167603,833.895874 
	C1718.016113,830.332031 1706.395752,825.320984 1694.588257,820.819092 
	C1693.677490,820.471802 1692.709473,820.274658 1691.384033,820.005066 
	C1688.273071,819.341187 1689.166992,817.324463 1689.603394,815.754089 
	C1690.821411,811.370544 1690.718872,807.007385 1689.784912,802.174194 
	C1689.429932,798.445496 1689.115356,795.148621 1690.310669,791.496338 
	C1692.559326,789.363647 1694.512817,789.777832 1696.707397,791.665527 
z"/>
<path fill="#EAE0EB" opacity="1.000000" stroke="none" 
	d="
M1734.327637,832.060669 
	C1733.398682,831.533325 1732.827148,831.032715 1732.130249,830.270935 
	C1739.010986,829.607056 1743.556519,825.696472 1746.744263,819.769409 
	C1747.217529,818.889160 1748.153931,818.416992 1749.556152,818.729858 
	C1745.709595,833.674622 1742.036255,848.555054 1737.953125,863.329407 
	C1734.099609,877.272827 1730.293701,891.257996 1726.626221,905.260193 
	C1724.361816,913.906067 1722.055542,922.640381 1719.337036,931.227661 
	C1715.621582,942.963684 1707.671997,951.341003 1699.393311,959.992920 
	C1703.744507,943.012817 1710.227417,926.604980 1716.481445,910.119690 
	C1720.973877,898.277466 1722.038086,885.424316 1727.097290,873.784302 
	C1730.518799,865.912476 1732.220581,857.469666 1735.748413,849.623474 
	C1737.300415,846.171875 1739.571655,842.099670 1735.893677,838.281677 
	C1734.982422,837.335571 1735.573486,836.623474 1736.238647,835.732727 
	C1737.684692,833.795654 1736.560791,832.729065 1734.327637,832.060669 
z"/>
<path fill="#C7CFE1" opacity="1.000000" stroke="none" 
	d="
M243.851410,640.108398 
	C244.054489,639.812683 244.059998,639.516724 244.047729,639.372070 
	C248.405685,637.287231 248.974274,632.510193 251.415268,629.142639 
	C255.386551,623.663757 258.569458,617.579712 264.257477,613.540161 
	C266.722992,611.789185 269.088043,611.744873 271.576477,614.696716 
	C264.437958,614.628662 261.892975,620.303101 258.431549,624.433777 
	C255.480637,627.955383 253.605408,632.359680 251.048981,636.238220 
	C249.739548,638.224792 250.611084,638.622437 252.322250,639.327881 
	C255.085297,640.466858 257.919250,641.653503 260.329651,643.372070 
	C263.284515,645.479004 264.151093,644.394287 265.059601,641.505371 
	C267.281647,634.439758 268.763214,627.083069 273.440918,620.793396 
	C272.915222,631.732849 269.316010,642.060059 266.292786,652.777222 
	C261.399780,649.727661 256.087402,647.763062 251.174896,645.052979 
	C249.316284,644.027649 248.211700,644.314758 247.300812,646.279846 
	C246.402451,648.217773 245.067108,649.957642 244.217102,651.912109 
	C243.418350,653.748718 242.797806,656.272217 240.418472,655.325317 
	C238.519836,654.569641 237.419968,652.286194 238.870331,649.584412 
	C240.939346,646.520325 242.354218,643.493591 243.851410,640.108398 
z"/>
<path fill="#E2D0D4" opacity="1.000000" stroke="none" 
	d="
M1749.889282,818.557861 
	C1746.184937,820.267944 1745.707520,824.371033 1743.128784,826.840515 
	C1739.887085,829.944946 1737.126343,831.763672 1732.396118,830.015991 
	C1730.797607,828.232117 1729.559570,826.474487 1728.389526,824.672607 
	C1726.181152,821.272461 1726.941650,819.117554 1730.862793,818.027771 
	C1735.949829,816.614136 1741.076416,815.342407 1746.588135,814.003540 
	C1748.567139,812.962952 1749.317871,813.858521 1749.892090,815.613281 
	C1749.918335,816.730103 1749.918091,817.461975 1749.889282,818.557861 
z"/>
<path fill="#EDE6EC" opacity="1.000000" stroke="none" 
	d="
M293.043060,660.593140 
	C292.813385,660.999817 292.645660,660.993347 292.225891,660.979187 
	C291.087219,660.463928 290.200531,659.956360 289.145142,659.189209 
	C288.556915,648.033020 290.029266,637.087219 288.107483,626.224609 
	C287.914856,625.135803 287.773926,623.789246 289.235535,623.280823 
	C290.666962,622.782898 291.877930,623.254211 292.649475,624.537231 
	C293.155731,625.379089 293.729919,626.305359 293.836304,627.243469 
	C295.084778,638.250671 295.140198,649.241333 293.043060,660.593140 
z"/>
<path fill="#EAE0EB" opacity="1.000000" stroke="none" 
	d="
M1750.203369,815.772949 
	C1749.149048,815.354614 1748.379639,814.710938 1747.300293,814.032471 
	C1746.974243,813.279480 1746.958374,812.561401 1746.904297,811.489014 
	C1750.158203,810.894531 1751.678955,812.108276 1750.203369,815.772949 
z"/>
<path fill="#EAE0EB" opacity="1.000000" stroke="none" 
	d="
M1723.943359,802.673889 
	C1722.278809,803.169312 1720.803223,802.538574 1719.204346,801.342468 
	C1721.136475,799.505310 1722.515503,800.914001 1723.943359,802.673889 
z"/>
<path fill="#EAE0EB" opacity="1.000000" stroke="none" 
	d="
M1730.972290,805.603333 
	C1729.385010,805.847839 1727.952393,805.333496 1726.929321,803.525391 
	C1728.596313,803.079834 1730.020386,803.637878 1730.972290,805.603333 
z"/>
<path fill="#EAE0EB" opacity="1.000000" stroke="none" 
	d="
M1538.579468,790.990051 
	C1538.930054,791.855408 1538.707642,792.631775 1537.354248,792.970825 
	C1537.070435,792.133301 1537.306274,791.367371 1538.579468,790.990051 
z"/>
<path fill="#EAE0EB" opacity="1.000000" stroke="none" 
	d="
M1714.982178,799.688049 
	C1714.459229,799.806519 1713.898926,799.639648 1713.169189,799.224548 
	C1713.908936,797.929749 1714.526367,798.212341 1714.982178,799.688049 
z"/>
<path fill="#EAE0EB" opacity="1.000000" stroke="none" 
	d="
M1541.603027,781.002319 
	C1541.930176,781.851807 1541.712158,782.627563 1540.392212,782.988525 
	C1540.071533,782.139771 1540.306885,781.375854 1541.603027,781.002319 
z"/>
<path fill="#EAE0EB" opacity="1.000000" stroke="none" 
	d="
M1738.980957,808.612305 
	C1738.142456,808.944336 1737.368652,808.734192 1736.935547,807.473145 
	C1737.794434,807.068665 1738.587158,807.253357 1738.980957,808.612305 
z"/>
<path fill="#EAE0EB" opacity="1.000000" stroke="none" 
	d="
M1744.970337,810.706665 
	C1744.451416,810.843445 1743.897949,810.689331 1743.166748,810.303345 
	C1743.858887,808.936646 1744.486206,809.173645 1744.970337,810.706665 
z"/>
<path fill="#EAE0EB" opacity="1.000000" stroke="none" 
	d="
M1544.614380,771.007629 
	C1544.932129,771.852966 1544.706665,772.623047 1543.407227,772.994324 
	C1543.072632,772.141602 1543.291992,771.368530 1544.614380,771.007629 
z"/>
<path fill="#EAE0EB" opacity="1.000000" stroke="none" 
	d="
M1697.193848,965.827515 
	C1695.942871,965.086365 1696.206055,964.463928 1697.665161,964.006104 
	C1697.779175,964.527954 1697.612549,965.093506 1697.193848,965.827515 
z"/>
<path fill="#D3C6CA" opacity="1.000000" stroke="none" 
	d="
M1680.339844,814.694336 
	C1669.500244,811.075439 1658.962402,807.157959 1648.444458,803.187256 
	C1634.211548,797.814026 1619.993896,792.399963 1605.389771,786.999512 
	C1603.559204,784.895935 1604.965332,783.129395 1605.885742,781.504272 
	C1609.237427,775.586121 1613.182129,770.107117 1618.204346,765.434509 
	C1620.426880,763.366882 1622.628174,762.960449 1625.423340,764.161133 
	C1629.065186,765.725586 1632.780151,767.129150 1636.833130,768.699341 
	C1637.437012,768.897644 1637.674561,768.990356 1638.256348,769.251831 
	C1646.742920,773.457153 1655.416870,776.184082 1663.836426,779.530518 
	C1668.430420,781.356445 1672.954346,783.366272 1677.967896,785.259766 
	C1679.750366,786.433899 1681.021362,787.718933 1681.073608,789.413208 
	C1681.330444,797.735535 1684.065308,806.113953 1680.339844,814.694336 
z"/>
<path fill="#F2F8FF" opacity="1.000000" stroke="none" 
	d="
M1697.157349,791.652832 
	C1695.244507,791.676697 1693.503052,791.314453 1691.374756,790.930603 
	C1689.858521,790.333008 1689.261841,789.307678 1689.010742,788.163452 
	C1687.421143,780.923706 1682.572388,775.488098 1678.634033,769.588623 
	C1673.885620,762.475342 1665.953125,760.065308 1658.515747,757.406311 
	C1643.609619,752.077087 1629.056274,752.106384 1616.402222,763.180725 
	C1606.783569,771.598389 1599.442261,781.823242 1594.400269,793.628540 
	C1592.963501,796.992859 1591.407349,800.316772 1589.522339,803.435852 
	C1588.608154,804.948730 1587.017700,807.525696 1585.762085,803.275452 
	C1587.301270,795.705994 1591.536621,789.606323 1594.037720,782.432556 
	C1597.326538,774.026245 1601.935059,766.928528 1608.802979,761.100586 
	C1615.257568,755.400391 1622.747559,751.618530 1628.543701,745.327454 
	C1635.138672,738.169250 1644.737427,737.107178 1653.957642,738.167175 
	C1666.596069,739.620117 1677.992554,744.478638 1686.649170,754.215759 
	C1696.056152,764.796631 1700.274902,777.041931 1697.157349,791.652832 
z"/>
<path fill="#EDEEEF" opacity="1.000000" stroke="none" 
	d="
M1585.610596,803.044434 
	C1587.708252,804.390686 1587.794800,804.432922 1588.779541,802.414978 
	C1591.603638,796.626892 1594.018433,790.612000 1597.197021,785.029541 
	C1604.085449,772.931458 1612.397705,761.686523 1625.318604,755.735596 
	C1634.205688,751.642456 1643.981323,751.712891 1653.744751,754.549561 
	C1659.057129,756.092896 1663.942871,758.370911 1669.002686,760.395630 
	C1674.178223,762.466675 1677.968994,765.857666 1680.969849,770.423950 
	C1685.047974,776.629761 1689.645142,782.553650 1690.947510,790.538940 
	C1691.007202,794.304138 1691.026611,797.699402 1691.044434,801.554260 
	C1687.482910,806.336243 1687.840210,811.658142 1687.575562,816.703979 
	C1687.122314,825.349609 1685.489502,833.794678 1683.914307,842.260132 
	C1683.612671,843.880249 1683.161621,845.507690 1681.393311,846.808594 
	C1677.960083,846.545654 1677.098511,844.578308 1676.949219,841.753418 
	C1676.675171,836.567200 1678.548462,831.728638 1679.239380,826.704224 
	C1679.735962,823.094604 1679.942871,819.532104 1680.026978,815.471436 
	C1681.520142,807.475342 1680.050781,799.934204 1680.053589,792.393005 
	C1680.054443,789.984009 1679.910156,787.742126 1677.367065,786.033875 
	C1676.688110,785.482849 1676.378906,785.098572 1675.995117,784.328735 
	C1672.196899,763.195679 1641.222778,751.753967 1628.353271,762.825012 
	C1630.604614,766.087952 1636.428345,764.444946 1637.219849,769.683899 
	C1632.682373,768.315552 1628.295654,766.797546 1624.052734,764.949768 
	C1622.196655,764.141418 1621.053223,764.408264 1619.672241,765.751526 
	C1613.546265,771.710449 1608.278931,778.255859 1605.036987,786.635620 
	C1600.728027,792.511963 1598.151489,798.881958 1595.693481,805.333801 
	C1594.681274,807.990662 1593.239746,810.458130 1589.993042,810.952698 
	C1587.696167,811.302551 1586.177002,809.972534 1584.991699,808.330200 
	C1583.761353,806.625488 1583.249756,804.764404 1585.610596,803.044434 
z"/>
<path fill="#D3C6CA" opacity="1.000000" stroke="none" 
	d="
M1608.967285,760.749146 
	C1603.589600,767.477661 1599.151123,774.669739 1594.437012,781.987305 
	C1585.614380,778.813599 1577.124512,775.553833 1568.296387,772.165833 
	C1562.879272,770.267395 1557.791748,768.521790 1552.734985,766.690918 
	C1552.200684,766.497375 1551.545776,765.846497 1551.470581,765.331299 
	C1551.284912,764.061584 1552.462891,763.637512 1553.359375,763.410583 
	C1556.892822,762.516296 1560.474731,761.814941 1564.013428,760.939880 
	C1566.744141,760.264526 1568.595947,759.403870 1566.648071,755.828186 
	C1564.773193,752.386292 1563.719116,748.486633 1562.411621,744.750549 
	C1561.681030,742.662903 1562.330933,741.890137 1564.571777,742.766052 
	C1579.070312,748.433472 1593.584106,754.061584 1608.085083,759.722961 
	C1608.364502,759.832092 1608.546875,760.189514 1608.967285,760.749146 
z"/>
<path fill="#EAE0EB" opacity="1.000000" stroke="none" 
	d="
M1681.215820,847.238770 
	C1683.961792,837.658020 1685.279297,828.015015 1685.850098,818.336670 
	C1686.112915,813.879761 1687.259155,809.529968 1687.063599,805.039673 
	C1686.976807,803.046692 1688.250488,802.061279 1690.636108,802.017517 
	C1692.527588,806.805725 1692.606201,811.586487 1690.826294,816.318054 
	C1690.424438,817.386353 1689.748169,818.364380 1690.728760,819.768982 
	C1689.991577,826.842590 1689.077637,833.698547 1687.936523,840.516479 
	C1687.327759,844.153381 1686.267944,847.669556 1681.215820,847.238770 
z"/>
<path fill="#EDEEEF" opacity="1.000000" stroke="none" 
	d="
M570.005249,266.997925 
	C606.752686,247.962982 643.154907,229.068344 679.578003,210.214127 
	C685.783325,207.001984 686.089539,207.138092 689.260315,213.579178 
	C691.314758,217.752640 693.304260,221.962524 695.172668,226.221985 
	C697.103821,230.624512 695.911804,233.635788 691.389648,235.899399 
	C670.794922,246.208511 650.263672,256.647766 629.802795,267.220551 
	C591.968323,286.770782 554.204651,306.457947 516.399780,326.065552 
	C501.424713,333.832458 486.435150,341.571838 471.418152,349.257294 
	C465.403320,352.335571 464.014862,351.824707 460.911926,345.788483 
	C458.942047,341.956451 457.081818,338.067810 455.094879,334.244843 
	C453.134491,330.472870 453.728485,327.637817 457.685638,325.574341 
	C467.958008,320.217865 478.159363,314.725372 488.419220,309.344635 
	C502.215973,302.108978 516.023499,294.893372 529.859314,287.732849 
	C541.363220,281.779175 552.918091,275.923889 564.441833,270.008423 
	C566.207153,269.102234 567.926392,268.106262 570.005249,266.997925 
z"/>
<path fill="#F2F8FF" opacity="1.000000" stroke="none" 
	d="
M411.301239,245.412140 
	C410.279694,241.117844 412.104645,238.978470 415.504486,237.153152 
	C424.523071,232.311188 433.452789,227.316528 442.651611,222.803696 
	C447.520630,220.415024 450.573059,220.886856 452.720154,225.775650 
	C458.468506,238.864258 465.351562,251.385696 471.596252,264.224243 
	C474.357544,269.901184 473.105621,273.780396 467.696014,276.651184 
	C459.203430,281.158051 450.727203,285.695862 442.222565,290.179871 
	C437.428894,292.707367 434.225250,292.231110 432.100616,287.999420 
	C425.071503,273.999237 418.301849,259.868774 411.301239,245.412140 
z"/>
<path fill="#F2F8FF" opacity="1.000000" stroke="none" 
	d="
M1308.382202,340.334351 
	C1305.217773,345.359589 1300.656982,344.219727 1296.487549,343.564484 
	C1293.647949,343.118256 1290.853638,342.534119 1288.145508,343.512115 
	C1285.421021,344.496063 1283.629150,343.460541 1282.062622,341.498627 
	C1280.561523,339.618652 1279.533081,337.746704 1280.881714,335.147949 
	C1283.151978,330.773560 1281.756226,325.974640 1281.956909,321.370148 
	C1282.230347,315.086823 1287.107910,311.643372 1293.390137,312.550903 
	C1306.216431,314.403778 1311.427490,324.694489 1311.011597,332.555725 
	C1310.867432,335.281403 1310.245728,337.795654 1308.382202,340.334351 
z"/>
<path fill="#F2F8FF" opacity="1.000000" stroke="none" 
	d="
M243.758209,640.015076 
	C243.926636,643.509766 242.366364,646.534851 239.376709,649.171143 
	C239.653397,645.849304 241.252747,642.884583 243.758209,640.015076 
z"/>
<path fill="#F2F8FF" opacity="1.000000" stroke="none" 
	d="
M1637.254883,769.994995 
	C1635.428589,766.066711 1631.158936,766.814392 1628.362671,765.000427 
	C1627.310303,764.317810 1625.485107,764.412842 1625.493774,762.735107 
	C1625.501099,761.336182 1627.065430,761.327820 1628.068115,760.804504 
	C1641.137817,753.983521 1653.016846,757.221313 1664.430786,764.948425 
	C1671.022339,769.410889 1675.382202,775.354431 1676.999268,783.605469 
	C1675.852417,785.052979 1674.899658,784.168579 1673.835815,783.751831 
	C1662.152710,779.175293 1650.397583,774.784729 1638.361572,770.101990 
	C1637.990234,770.043884 1637.499146,770.022461 1637.254883,769.994995 
z"/>
<path fill="#EAE0EB" opacity="1.000000" stroke="none" 
	d="
M1638.167969,770.345764 
	C1641.317993,768.065613 1643.519897,771.178040 1645.983276,772.153259 
	C1656.055664,776.140808 1666.520630,779.127441 1676.639282,783.954834 
	C1677.006470,784.406311 1677.012817,784.815002 1677.031738,785.526978 
	C1664.035889,781.046204 1650.989380,776.360107 1638.167969,770.345764 
z"/>
</svg>