<svg xmlns="http://www.w3.org/2000/svg" xmlns:xlink="http://www.w3.org/1999/xlink" width="308" height="230" viewBox="0 0 308 230"><defs><style>.a{fill:none;}.b{clip-path:url(#a);}.c{opacity:0.05;}.d{opacity:0.1;}.e{fill:#999691;}.f{fill:#ffd200;}.g{fill:#aeb8c2;}.h{fill:#ff4633;}.i{fill:#fff;}</style><clipPath id="a"><rect class="a" width="308" height="230" transform="translate(179 574)"/></clipPath></defs><g transform="translate(-179 -574)"><g class="b"><ellipse class="c" cx="154" cy="35" rx="154" ry="35" transform="translate(179 734)"/><ellipse class="d" cx="34" cy="7.727" rx="34" ry="7.727" transform="translate(354 774.773)"/><path class="e" d="M235.514,736.729H179V716.794l40.835-86.53H244.19l-40.835,86.53h32.159V683.575h21.607v33.219h11.958v19.935H257.121V757.8H235.514Z"/><path class="e" d="M290.391,714.573V673.478c0-27.189,18.694-45.883,45.883-45.883s45.884,18.694,45.884,45.883v41.095c0,27.2-18.694,45.883-45.884,45.883S290.391,741.777,290.391,714.573Zm69.979,1.515v-44.2a24.092,24.092,0,1,0-48.184,0v44.2a24.092,24.092,0,0,0,48.184,0Z"/><path class="e" d="M487,717.948c0,24.175-19.574,42.249-43.489,42.249-19.134,0-36.313-11.871-41.809-30.378l20.642-5.582A21.347,21.347,0,0,0,443.424,740,21.571,21.571,0,0,0,465.3,717.948c0-12.578-9.03-22.242-21.875-22.242a23.294,23.294,0,0,0-11.07,3.015l-9.744-16.833,36.847-31.532H406.664V630.264H484.88v20.193L456.089,678.08C475.663,682.075,487,698.548,487,717.948Z"/><path class="f" d="M487,649.66,179,736.34v-19L487,630.66Z"/><path d="M194.8,732l-12,3.126,2.394-19.628,12-3.126Z"/><path d="M218.8,725.241l-12,3.126,2.394-19.628,12-3.126Z"/><path d="M242.8,718.487l-12,3.126,2.394-19.628,12-3.126Z"/><path d="M266.8,711.733l-12,3.126,2.394-19.628,12-3.126Z"/><path d="M290.8,704.978l-12,3.126,2.394-19.628,12-3.126Z"/><path d="M314.8,698.224l-12,3.126,2.394-19.628,12-3.126Z"/><path d="M338.8,691.47l-12,3.126,2.394-19.628,12-3.126Z"/><path d="M362.8,684.715l-12,3.126,2.394-19.628,12-3.126Z"/><path d="M386.8,677.961l-12,3.126,2.394-19.628,12-3.126Z"/><path d="M410.8,671.207l-12,3.126L401.2,654.7l12-3.126Z"/><path d="M434.8,664.452l-12,3.126L425.2,647.95l12-3.126Z"/><path d="M458.8,657.7l-12,3.126L449.2,641.2l12-3.126Z"/><path d="M482.8,650.944l-12,3.126,2.394-19.628,12-3.126Z"/><path class="g" d="M386,650V782c0,.552.895,1,2,1s2-.448,2-1V650Z"/><rect class="h" width="80" height="80" rx="9.891" transform="translate(348 574)"/><path class="i" d="M388,584a30,30,0,1,0,30,30A30,30,0,0,0,388,584Zm0,55a25,25,0,1,1,25-25A25,25,0,0,1,388,639Z"/><rect class="i" width="25" height="5" transform="translate(375.5 611.5)"/></g></g></svg>