<svg xmlns="http://www.w3.org/2000/svg" xmlns:xlink="http://www.w3.org/1999/xlink" width="308" height="230" viewBox="0 0 308 230"><defs><style>.a{fill:none;}.b{clip-path:url(#a);}.c{opacity:0.05;}.d{fill:#f5f5f7;}.e{fill:#dce0e6;}.f{fill:#24285b;}.g{fill:#596380;}.h{fill:#ffd200;}.i{fill:#fff;}.j{fill:#97a3ad;}</style><clipPath id="a"><rect class="a" width="308" height="230" transform="translate(1010 582)"/></clipPath></defs><g transform="translate(-1010 -582)"><g class="b"><ellipse class="c" cx="154" cy="35" rx="154" ry="35" transform="translate(1010 742)"/><ellipse class="c" cx="121" cy="2" rx="121" ry="2" transform="translate(1043 752)"/><rect class="d" width="228.672" height="158.82" transform="translate(1049.664 582)"/><rect class="e" width="228.672" height="125.754" transform="translate(1049.664 615.066)"/><ellipse class="f" cx="4.398" cy="4.429" rx="4.398" ry="4.429" transform="translate(1063.711 592.142)"/><ellipse class="g" cx="4.398" cy="4.429" rx="4.398" ry="4.429" transform="translate(1076.794 592.142)"/><ellipse class="h" cx="4.398" cy="4.429" rx="4.398" ry="4.429" transform="translate(1089.123 592.142)"/><path class="i" d="M1111.9,664.221a2.54,2.54,0,0,1,0-3.575l0,0,14.97-15.067a2.5,2.5,0,0,1,3.545.2,2.542,2.542,0,0,1,0,3.369l-14.971,15.077A2.5,2.5,0,0,1,1111.9,664.221Z"/><path class="i" d="M1127.106,664.464l-14.97-15.077a2.541,2.541,0,0,1-.057-3.575,2.5,2.5,0,0,1,3.55-.057c.021.02.041.041.061.062l14.961,15.067a2.542,2.542,0,0,1,.066,3.575,2.5,2.5,0,0,1-3.549.067l-.062-.062Z"/><path class="i" d="M1194.91,664.221a2.54,2.54,0,0,1-.005-3.575l.005,0,14.97-15.067a2.5,2.5,0,0,1,3.544-.2,2.539,2.539,0,0,1,.2,3.569,2.483,2.483,0,0,1-.2.2l-14.96,15.077A2.517,2.517,0,0,1,1194.91,664.221Z"/><path class="i" d="M1210.151,664.464l-14.97-15.077a2.541,2.541,0,0,1-.057-3.575,2.5,2.5,0,0,1,3.549-.057l.062.062,14.96,15.067a2.541,2.541,0,0,1,.067,3.575,2.5,2.5,0,0,1-3.549.067l-.062-.062Z"/><path class="i" d="M1142.82,707.39a2.508,2.508,0,0,1-2.49-2.326c-.7-8.605,2.54-25.543,19.8-28.01,5.392-.759,9.9.485,13.394,3.721,8.2,7.594,7.39,23.561,7.36,24.269a2.514,2.514,0,1,1-5.02-.283h0c0-.142.713-14.258-5.743-20.225-2.37-2.184-5.4-2.973-9.288-2.426-16.948,2.335-15.573,21.72-15.5,22.56a2.523,2.523,0,0,1-2.3,2.72Z"/><ellipse cx="52.8" cy="12" rx="52.8" ry="12" transform="translate(1111.2 765)"/><path class="j" d="M1065.337,756.844H1010V737.324l39.985-84.729h23.855l-39.985,84.729h31.482V704.8H1086.5v32.527H1098.2v19.519H1086.5v20.635h-21.158Z"/><path class="j" d="M1285.134,756.844H1229.8V737.324l39.985-84.729h23.855l-39.985,84.729h31.482V704.8h21.158v32.527H1318v19.519h-11.709v20.635h-21.158Z"/><path class="j" d="M1142.457,787.955a23.67,23.67,0,0,1,42.566.054,115.012,115.012,0,0,0,21.241-3.822c-5.762-17.839-21.556-29.205-42.531-29.205-20.925,0-36.693,11.3-42.5,29.049A111.5,111.5,0,0,0,1142.457,787.955Z"/></g></g></svg>