<svg xmlns="http://www.w3.org/2000/svg" xmlns:xlink="http://www.w3.org/1999/xlink" width="308" height="230" viewBox="0 0 308 230"><defs><style>.a{fill:none;}.b{clip-path:url(#a);}.c{fill:#e6e6e6;}.d{fill:#f5f5f7;}.e{fill:#9294ad;}.f{fill:#ffd200;}.g{fill:#aeb8c2;}.h{fill:#dce0e6;}.i{fill:#24285b;}.j{fill:#ff4d4d;}.k{fill:#fff;}</style><clipPath id="a"><rect class="a" width="308" height="230" transform="translate(638 574)"/></clipPath></defs><g transform="translate(-638 -574)"><g class="b"><path class="c" d="M788,799.455H748.216v-3.017h36.743V742.822H788Z"/><path class="d" d="M879.86,659.975c-.944,0-1.868.06-2.781.15v-1.3a39.4,39.4,0,0,0-39.585-39.217h-1.675c-.724-25.9-22.5-46.31-48.642-45.593a47.1,47.1,0,0,0-46.021,48.19,46.481,46.481,0,0,0,1.192,9.239,39.2,39.2,0,0,0,1.492,78.363H879.85a24.909,24.909,0,1,0,0-49.815h0Z"/><path class="e" d="M724.522,702.141c0,23.811-20.829,42.683-44.952,42.683A42.973,42.973,0,0,1,638,713.341l20.651-5.468c2.582,10.23,12.107,16.579,21.72,16.579a22.462,22.462,0,0,0,22.61-22.311c0-12.346-10.326-22.223-22.61-22.223-9.88,0-16.2,4.321-19.672,8.289l-18.338-5.82,3.917-67.2h69.61v19.93h-50.56l-1.959,31.219a39.764,39.764,0,0,1,19.94-5.644C707.342,660.693,724.522,678.33,724.522,702.141Z"/><path class="e" d="M744.521,699.142V658.224c0-27.074,18.782-45.682,46.11-45.682s46.109,18.608,46.109,45.682v40.918c0,27.074-18.782,45.682-46.109,45.682S744.521,726.216,744.521,699.142Zm70.322,1.5V656.636a24.212,24.212,0,0,0-48.424,0v44.006a24.213,24.213,0,0,0,48.424,0Z"/><path class="e" d="M853.89,699.142V658.224c0-27.074,18.782-45.682,46.11-45.682s46.11,18.608,46.11,45.682v40.918c0,27.074-18.782,45.682-46.11,45.682S853.89,726.216,853.89,699.142Zm70.322,1.5V656.636a24.212,24.212,0,0,0-48.424,0v44.006a24.213,24.213,0,0,0,48.424,0Z"/><rect class="f" width="94.385" height="58.936" transform="translate(743.832 700.859)"/><rect class="g" width="94.385" height="58.936" transform="translate(743.832 700.859)"/><rect class="h" width="111.021" height="28.91" transform="translate(735.691 676.123)"/><rect class="i" width="66.239" height="6.727" transform="translate(748.216 686.741)"/><ellipse class="j" cx="5.542" cy="5.49" rx="5.542" ry="5.49" transform="translate(823.063 685.615)"/><rect class="h" width="111.021" height="28.91" transform="translate(735.691 710.975)"/><rect class="i" width="66.239" height="6.727" transform="translate(748.216 721.584)"/><ellipse class="k" cx="5.542" cy="5.49" rx="5.542" ry="5.49" transform="translate(823.063 720.468)"/><rect class="h" width="111.021" height="28.91" transform="translate(735.691 745.828)"/><rect class="i" width="66.239" height="6.727" transform="translate(748.216 756.437)"/><ellipse class="k" cx="5.542" cy="5.49" rx="5.542" ry="5.49" transform="translate(823.063 755.321)"/><rect class="c" width="36.581" height="3.017" transform="translate(786.482 796.438)"/><ellipse class="i" cx="5.988" cy="5.933" rx="5.988" ry="5.933" transform="translate(743.842 792.134)"/><ellipse class="i" cx="5.988" cy="5.933" rx="5.988" ry="5.933" transform="translate(817.074 792.134)"/></g></g></svg>