<svg xmlns="http://www.w3.org/2000/svg" xmlns:xlink="http://www.w3.org/1999/xlink" width="90.667" height="22" viewBox="0 0 90.667 22"><defs><clipPath id="a"><path d="M2404.472,992h-22.8l3.2-22h22.8Z" transform="translate(-2381.676 -970)" fill="#1a53ff"/></clipPath><clipPath id="b"><rect width="62.667" height="16" fill="#262626"/></clipPath></defs><g transform="translate(-30 -21)"><g transform="translate(30 21)"><g clip-path="url(#a)"><path d="M2388.177,1037.5h0l-6.5,5.5h11.4Z" transform="translate(-2381.676 -1021)" fill="#1a53ff" opacity="0.5"/><path d="M2384.881,970l-3.2,22h5.7l.8-5.5h5.7l.8-5.5h5.7l-.8,5.5-.8,5.5h5.7l3.2-22Zm15.9,8.25h-5.7l.8-5.5h5.7Z" transform="translate(-2381.677 -970)" fill="#1a53ff"/></g></g><g transform="translate(-628.729 -2051)"><g transform="translate(686.73 2076)" clip-path="url(#b)"><path d="M930.451,2092.935a2.5,2.5,0,0,0-2.543-1.935h-5.479l-.225,1.6h5.367a1.366,1.366,0,0,1,1.082.476,1.014,1.014,0,0,1-.781,1.657h-3.554a3.383,3.383,0,0,0-3.243,2.844l-.175,1.245a2.414,2.414,0,0,0,2.443,2.845h2.488a3.952,3.952,0,0,0,2.037-.588l-.082.588h1.6l.5-3.556.474-3.378.125-.889h0A2.585,2.585,0,0,0,930.451,2092.935Zm-1.915,3.4-.1.711-.15,1.067a2.329,2.329,0,0,1-2.229,1.956h-2.488a1.057,1.057,0,0,1-1.069-1.244l.175-1.245a1.482,1.482,0,0,1,1.419-1.244h3.554a2.665,2.665,0,0,0,.911-.163Z" transform="translate(-879.269 -2088.333)" fill="#262626"/><path d="M802.041,2091h-3.2a3.383,3.383,0,0,0-3.242,2.844l-.237,1.689-.225,1.6-.237,1.689a2.414,2.414,0,0,0,2.443,2.845h3.2a3.383,3.383,0,0,0,3.242-2.845l.013-.089h-1.6l-.013.089a1.482,1.482,0,0,1-1.418,1.244h-3.2a1.057,1.057,0,0,1-1.069-1.244l.237-1.689h7.285l.225-1.6.237-1.689A2.414,2.414,0,0,0,802.041,2091Zm-5.079,4.533.237-1.689a1.482,1.482,0,0,1,1.419-1.244h3.2a1.057,1.057,0,0,1,1.069,1.244l-.237,1.689Z" transform="translate(-775.657 -2088.333)" fill="#262626"/><path d="M740.041,2091h-3.2a3.383,3.383,0,0,0-3.242,2.844l-.237,1.689-.225,1.6-.237,1.689a2.415,2.415,0,0,0,2.444,2.845h3.2a3.383,3.383,0,0,0,3.242-2.845l.013-.089h-1.6l-.013.089a1.482,1.482,0,0,1-1.418,1.244h-3.2a1.057,1.057,0,0,1-1.069-1.244l.237-1.689h7.285l.225-1.6.237-1.689A2.414,2.414,0,0,0,740.041,2091Zm-5.079,4.533.237-1.689a1.482,1.482,0,0,1,1.418-1.244h3.2a1.057,1.057,0,0,1,1.069,1.244l-.237,1.689Z" transform="translate(-724.674 -2088.333)" fill="#262626"/><path d="M693.933,2076H690.38l-.25,1.778h1.777l-.849,6.044-.325,2.311a1.694,1.694,0,0,1-1.621,1.423H686.98l-.25,1.777h2.132a3.806,3.806,0,0,0,3.648-3.2l1.174-8.355h0Z" transform="translate(-686.73 -2076)" fill="#262626"/><path d="M990.5,2091l-.225,1.6-.325,2.311-.474,3.377-.075.533a1.482,1.482,0,0,1-1.418,1.244h-3.2a1.057,1.057,0,0,1-1.069-1.244l.549-3.911.325-2.311.225-1.6h-1.6l-1.1,7.822a2.414,2.414,0,0,0,2.443,2.845h3.2a3.094,3.094,0,0,0,1.284-.29l-.041.29a1.268,1.268,0,0,1-1.216,1.066H982.1l-.225,1.6h5.686a3.171,3.171,0,0,0,3.04-2.666l.4-2.845.075-.533L992.1,2091Z" transform="translate(-929.43 -2088.333)" fill="#262626"/><path d="M862.644,2091h-3.2a3.094,3.094,0,0,0-1.285.29l.041-.29h-1.6l-.4,2.844-.7,4.978-.774,5.511h1.6l.415-2.956a2.574,2.574,0,0,0,1.2.29h3.2a3.383,3.383,0,0,0,3.242-2.845l.7-4.978A2.414,2.414,0,0,0,862.644,2091Zm.145,7.822a1.482,1.482,0,0,1-1.419,1.244h-3.2a1.057,1.057,0,0,1-1.069-1.244l.7-4.978a1.482,1.482,0,0,1,1.418-1.244h3.2a1.057,1.057,0,0,1,1.069,1.244Z" transform="translate(-824.879 -2088.333)" fill="#262626"/></g></g></g></svg>