<?xml version="1.0" standalone="no"?><!DOCTYPE svg PUBLIC "-//W3C//DTD SVG 1.1//EN" "http://www.w3.org/Graphics/SVG/1.1/DTD/svg11.dtd"><svg t="1621851766037" class="icon" viewBox="0 0 1024 1024" version="1.1" xmlns="http://www.w3.org/2000/svg" p-id="2360" xmlns:xlink="http://www.w3.org/1999/xlink" width="16" height="16"><defs><style type="text/css"></style></defs><path d="M243.2 512c0-49.664-39.936-89.6-89.6-89.6S64 462.336 64 512s39.936 89.6 89.6 89.6 89.6-39.936 89.6-89.6z m179.2 0c0 49.664 39.936 89.6 89.6 89.6s89.6-39.936 89.6-89.6-39.936-89.6-89.6-89.6-89.6 39.936-89.6 89.6z m358.4 0c0 49.664 39.936 89.6 89.6 89.6S960 561.664 960 512s-39.936-89.6-89.6-89.6c-49.152 0-89.6 39.936-89.6 89.6z" p-id="2361" fill="#2c2c2c"></path></svg>