<svg xmlns="http://www.w3.org/2000/svg" xmlns:xlink="http://www.w3.org/1999/xlink" width="14" height="14" viewBox="0 0 14 14"><defs><style>.a,.b{fill:#1a53ff;}.a{stroke:#707070;}.c{clip-path:url(#a);}.d{clip-path:url(#b);}</style><clipPath id="a"><rect class="a" width="14" height="14" transform="translate(796 520)"/></clipPath><clipPath id="b"><rect class="b" width="12" height="12" transform="translate(0)"/></clipPath></defs><g class="c" transform="translate(-796 -520)"><g transform="translate(-100 289.628)"><g class="d" transform="translate(897 231.372)"><path class="b" d="M1182.9,231.267h-3.343v3.745a2.254,2.254,0,0,1,0,4.508v3.75h3.343a2.291,2.291,0,0,0,2.258-2.308V233.58a2.289,2.289,0,0,0-2.258-2.313Zm0,0" transform="translate(-1173.16 -231.269)"/><path class="b" d="M903.133,235.581a1.657,1.657,0,0,0-.531.086v-4.3h-3.343A2.291,2.291,0,0,0,897,233.68v7.381a2.291,2.291,0,0,0,2.258,2.308H902.6v-4.293a1.713,1.713,0,0,0,.531.086,1.791,1.791,0,0,0,0-3.582Zm0,0" transform="translate(-897 -231.372)"/></g></g></g></svg>