<svg xmlns="http://www.w3.org/2000/svg" xmlns:xlink="http://www.w3.org/1999/xlink" width="40" height="40" viewBox="0 0 40 40">
  <defs>
    <clipPath id="clip-path">
      <rect id="矩形_2579" data-name="矩形 2579" width="20.901" height="22" fill="#fff"/>
    </clipPath>
  </defs>
  <g id="支付宝生活号" transform="translate(-6425 -11707)">
    <path id="路径_4159" data-name="路径 4159" d="M190.234,137.3l-.02-.02-.02-.02c-1.443-1.443-3.6-2.177-6.514-2.562a91.718,91.718,0,0,0-10.431-.453,91.681,91.681,0,0,0-10.431.453c-2.93.387-5.091,1.126-6.534,2.583s-2.2,3.6-2.582,6.534a91.7,91.7,0,0,0-.453,10.431,91.682,91.682,0,0,0,.453,10.431c.385,2.917,1.12,5.071,2.563,6.514l.02.02.02.02c1.443,1.443,3.6,2.177,6.514,2.562a91.714,91.714,0,0,0,10.431.453,91.681,91.681,0,0,0,10.431-.453c2.93-.387,5.091-1.126,6.534-2.583s2.2-3.6,2.582-6.534a91.729,91.729,0,0,0,.453-10.431,91.681,91.681,0,0,0-.453-10.431c-.385-2.917-1.12-5.071-2.563-6.514Z" transform="translate(6271.75 11572.75)" fill="#1977fd"/>
    <g id="组_1007" data-name="组 1007" transform="translate(5864.55 11585)">
      <g id="组_1006" data-name="组 1006" transform="translate(570 131)">
        <g id="组_1005" data-name="组 1005" transform="translate(0 0)" clip-path="url(#clip-path)">
          <path id="路径_4167" data-name="路径 4167" d="M589.606,152.943a1.382,1.382,0,0,1-.472-.088l-8.257-3.279a1.252,1.252,0,0,0-.921,0l-8.257,3.279a1,1,0,0,1-.45.088,1.21,1.21,0,0,1-1.162-.8,1.161,1.161,0,0,1-.088-.472V132.23a1.261,1.261,0,0,1,1.261-1.261h18.366a1.261,1.261,0,0,1,1.261,1.261v19.452a1.3,1.3,0,0,1-1.283,1.261ZM571.634,151.1l7.708-3.07a2.864,2.864,0,0,1,1.086-.219,3.077,3.077,0,0,1,1.1.208l7.708,3.059V132.6h-17.6Zm11.711-5.022a.837.837,0,0,1-.362-.088l-2.566-1.3-2.566,1.294a.838.838,0,0,1-.362.088.8.8,0,0,1-.614-.285.806.806,0,0,1-.164-.636l.494-2.741-2.062-1.93a.8.8,0,0,1-.219-.811.812.812,0,0,1,.647-.548l2.862-.395,1.272-2.5a.783.783,0,0,1,.7-.428.8.8,0,0,1,.7.428l1.272,2.5,2.862.395a.809.809,0,0,1,.647.548.781.781,0,0,1-.219.811l-2.061,1.941.493,2.741a.778.778,0,0,1-.164.636.754.754,0,0,1-.592.285Zm-2.906-2.785a1.071,1.071,0,0,1,.362.077l1.853.943-.351-1.985a.8.8,0,0,1,.23-.7L584,140.245l-2.05-.285a.736.736,0,0,1-.581-.417l-.921-1.831-.921,1.831a.782.782,0,0,1-.581.417l-2.039.285,1.436,1.382a.785.785,0,0,1,.23.7l-.362,2.007.175-.088c.6-.307,1.524-.779,1.667-.844l.022-.011a.69.69,0,0,1,.362-.1Zm0,0" transform="translate(-570 -130.97)" fill="#fff"/>
        </g>
      </g>
    </g>
  </g>
</svg>
