<svg xmlns="http://www.w3.org/2000/svg" xmlns:xlink="http://www.w3.org/1999/xlink" width="40" height="40" viewBox="0 0 40 40">
  <defs>
    <clipPath id="clip-path">
      <path id="路径_4169" data-name="路径 4169" d="M190.234,137.3l-.02-.02-.02-.02c-1.443-1.443-3.6-2.177-6.514-2.562a91.718,91.718,0,0,0-10.431-.453,91.681,91.681,0,0,0-10.431.453c-2.93.387-5.091,1.126-6.534,2.583s-2.2,3.6-2.582,6.534a91.7,91.7,0,0,0-.453,10.431,91.682,91.682,0,0,0,.453,10.431c.385,2.917,1.12,5.071,2.563,6.514l.02.02.02.02c1.443,1.443,3.6,2.177,6.514,2.562a91.714,91.714,0,0,0,10.431.453,91.681,91.681,0,0,0,10.431-.453c2.93-.387,5.091-1.126,6.534-2.583s2.2-3.6,2.582-6.534a91.729,91.729,0,0,0,.453-10.431,91.681,91.681,0,0,0-.453-10.431c-.385-2.917-1.12-5.071-2.563-6.514Z" transform="translate(6271.75 11622.75)" fill="#04c361"/>
    </clipPath>
  </defs>
  <g id="支付宝APP" transform="translate(-6425 -11757)" clip-path="url(#clip-path)">
    <path id="路径_4159" data-name="路径 4159" d="M190.234,137.3l-.02-.02-.02-.02c-1.443-1.443-3.6-2.177-6.514-2.562a91.718,91.718,0,0,0-10.431-.453,91.681,91.681,0,0,0-10.431.453c-2.93.387-5.091,1.126-6.534,2.583s-2.2,3.6-2.582,6.534a91.7,91.7,0,0,0-.453,10.431,91.682,91.682,0,0,0,.453,10.431c.385,2.917,1.12,5.071,2.563,6.514l.02.02.02.02c1.443,1.443,3.6,2.177,6.514,2.562a91.714,91.714,0,0,0,10.431.453,91.681,91.681,0,0,0,10.431-.453c2.93-.387,5.091-1.126,6.534-2.583s2.2-3.6,2.582-6.534a91.729,91.729,0,0,0,.453-10.431,91.681,91.681,0,0,0-.453-10.431c-.385-2.917-1.12-5.071-2.563-6.514Z" transform="translate(6271.75 11622.75)" fill="#1977fd"/>
    <path id="路径_4168" data-name="路径 4168" d="M677.256,334.179a14.853,14.853,0,0,0,1.374-2.946,13.7,13.7,0,0,0,.808-3.024l-5.6-.049v-1.91l6.782-.048V324.85h-6.782v-3.08h-3.322v3.08h-6.328V326.2l6.324-.048v2.052h-5.073v1.076h10.447a10.038,10.038,0,0,1-.514,1.948c-.4,1.084-.812,2.03-.812,2.03s-4.909-1.713-7.5-1.713-5.728,1.039-6.033,4.048,1.464,4.644,3.955,5.248a9.9,9.9,0,0,0,6.793-.987,15.752,15.752,0,0,0,3.966-3.207l16.4,7.306s.652-.983,1.121-1.9a21.179,21.179,0,0,0,.86-1.959Zm-10.719,5.013c-3.665,0-4.432-1.8-4.432-3.091s.763-2.7,3.877-2.9,7.326,2.208,7.326,2.208-3.106,3.788-6.771,3.788Zm0,0" transform="translate(5773 11445.265)" fill="#fff"/>
  </g>
</svg>
