<svg xmlns="http://www.w3.org/2000/svg" width="40" height="40" viewBox="0 0 40 40">
  <g id="聚合被扫" transform="translate(-6535 -11679)">
    <path id="路径_4159" data-name="路径 4159" d="M190.234,137.3l-.02-.02-.02-.02c-1.443-1.443-3.6-2.177-6.514-2.562a91.718,91.718,0,0,0-10.431-.453,91.681,91.681,0,0,0-10.431.453c-2.93.387-5.091,1.126-6.534,2.583s-2.2,3.6-2.582,6.534a91.7,91.7,0,0,0-.453,10.431,91.682,91.682,0,0,0,.453,10.431c.385,2.917,1.12,5.071,2.563,6.514l.02.02.02.02c1.443,1.443,3.6,2.177,6.514,2.562a91.714,91.714,0,0,0,10.431.453,91.681,91.681,0,0,0,10.431-.453c2.93-.387,5.091-1.126,6.534-2.583s2.2-3.6,2.582-6.534a91.729,91.729,0,0,0,.453-10.431,91.681,91.681,0,0,0-.453-10.431c-.385-2.917-1.12-5.071-2.563-6.514Z" transform="translate(6381.75 11544.75)" fill="#354268"/>
    <path id="路径_4161" data-name="路径 4161" d="M703.52,282.559h1.913v12.715H703.52Zm9.245,0h2.75v12.715h-2.75Zm-5.472,0h.89v12.715h-.89Zm2.722,0h.89v12.715h-.89Zm7.357,0h.89v12.715h-.89Zm0,0" transform="translate(5844.109 11410.043)" fill="#fff"/>
    <path id="减去_1" data-name="减去 1" d="M20,20H2a2,2,0,0,1-2-2V2A2,2,0,0,1,2,0H20a2,2,0,0,1,2,2V18A2,2,0,0,1,20,20ZM2.5,1.5a1,1,0,0,0-1,1v15a1,1,0,0,0,1,1h17a1,1,0,0,0,1-1V2.5a1,1,0,0,0-1-1Z" transform="translate(6544 11689)" fill="#fff"/>
  </g>
</svg>
