<svg xmlns="http://www.w3.org/2000/svg" xmlns:xlink="http://www.w3.org/1999/xlink" width="98.594" height="90" viewBox="0 0 98.594 90"><defs><clipPath id="a"><rect width="98.594" height="90" transform="translate(4766.87 7992)" fill="#fff"/></clipPath></defs><g transform="translate(-4766.87 -7992)" clip-path="url(#a)"><path d="M3044.676,1822.5h0l-12.856,11.273a6.408,6.408,0,0,0,4.225,11.227h23.076a2.246,2.246,0,0,0,1.7-3.71Z" transform="translate(1745.828 6237)" fill="#fff" opacity="0.5"/><path d="M3030.029,1766.621l-8.854,63A13.5,13.5,0,0,0,3034.544,1845h5.016a2.249,2.249,0,0,0,2.227-1.936l2.347-16.694a4.493,4.493,0,0,1,4.45-3.87h14.684a4.5,4.5,0,0,0,4.453-3.871l2.073-14.756a4.5,4.5,0,0,1,4.456-3.873h13.412a4.5,4.5,0,0,1,4.456,5.126l-2.44,17.374-2.8,19.943A2.245,2.245,0,0,0,3089.1,1845h8.183a13.5,13.5,0,0,0,13.368-11.621l8.854-63A13.5,13.5,0,0,0,3106.134,1755H3043.4A13.5,13.5,0,0,0,3030.029,1766.621Zm60.476,22.129H3077.1a4.5,4.5,0,0,1-4.458-5.129l1.9-13.494a4.506,4.506,0,0,1,4.46-3.877h13.4a4.5,4.5,0,0,1,4.461,5.131l-1.9,13.493A4.505,4.505,0,0,1,3090.5,1788.75Z" transform="translate(1745.829 6237)" fill="#fff"/></g></svg>