<svg xmlns="http://www.w3.org/2000/svg" xmlns:xlink="http://www.w3.org/1999/xlink" width="384.389" height="57" viewBox="0 0 384.389 57"><defs><style>.a{fill:none;}.b{clip-path:url(#a);}.c{fill:#fff;}</style><clipPath id="a"><rect class="a" width="384.389" height="57"/></clipPath></defs><g transform="translate(-2806.535 -455)"><g class="b" transform="translate(2806.535 455)"><g transform="translate(273.491)"><path class="c" d="M3299.561,471.467h-14.567L3287.308,455h-5.066l-2.314,16.467H3265.36l-.712,5.067h14.566l-4.094,29.133h5.067l4.094-29.133h14.566Z" transform="translate(-3248.001 -455)"/><path class="c" d="M3247.124,506.134l2.82-20.067.712-5.067h-11.4l-.712,5.067h6.333l-3.231,22.992-3.283,1.753,1.917,4.388,14.4-7.688-1.917-4.388Z" transform="translate(-3238.363 -464.533)"/><path class="c" d="M3258.2,461.973,3249.353,455l-3.512,4.133,8.852,6.973Z" transform="translate(-3241.105 -455)"/></g><g transform="translate(331.644)"><path class="c" d="M3357.386,503.733h15.2l.712-5.067h-15.2l1.068-7.6h13.3l.712-5.067h-31.667l-.712,5.067h13.3l-1.068,7.6h-15.2l-.712,5.067h15.2l-1.157,8.233H3330.9l-.712,5.067h45.6l.712-5.067h-20.267Z" transform="translate(-3330.184 -466.367)"/><path class="c" d="M3349.253,468.542c4.045-2.72,7.8-5.447,11.294-8.129,2.742,2.682,5.729,5.409,9.009,8.129,3.844,3.188,7.624,5.995,11.257,8.464l3.319-4.153c-3.728-2.549-7.6-5.441-11.537-8.722-3.669-3.058-7-6.127-10.016-9.132l-.005.006V455h-2.533v.006l0-.006c-3.861,3.005-8.055,6.074-12.583,9.132-4.858,3.281-9.545,6.172-13.989,8.722l2.151,4.153C3339.943,474.536,3344.512,471.73,3349.253,468.542Z" transform="translate(-3331.387 -455)"/></g><path class="c" d="M3068.662,470l-.8,5.7-.713,5.067-.089.633-1.958,13.933a8.3,8.3,0,0,1-7.946,6.967h-8.866a3.767,3.767,0,0,1-3.81-4.433l2.314-16.467.8-5.7.8-5.7h-5.7l-3.916,27.867A8.6,8.6,0,0,0,3047.489,508h8.867a14.089,14.089,0,0,0,7.261-2.093l-.294,2.093h5.7l1.78-12.667,2.047-14.567L3074.362,470Z" transform="translate(-2891.654 -460.5)"/><path class="c" d="M3166.378,508l.8-5.7.712-5.067.089-.633,1.958-13.933a8.3,8.3,0,0,1,7.946-6.967h8.867a3.767,3.767,0,0,1,3.81,4.433l-2.314,16.467-.8,5.7-.8,5.7h5.7l3.917-27.867A8.6,8.6,0,0,0,3187.552,470h-8.867a14.09,14.09,0,0,0-7.261,2.093l.295-2.093h-5.7l-1.78,12.667-2.047,14.567L3160.678,508Z" transform="translate(-2936.387 -460.5)"/><path class="c" d="M3134.819,476.894a8.915,8.915,0,0,0-9.065-6.894h-19.528l-.8,5.7h19.129a4.871,4.871,0,0,1,3.856,1.7,3.613,3.613,0,0,1-2.784,5.9H3112.96a12.056,12.056,0,0,0-11.558,10.133l-.623,4.433A8.6,8.6,0,0,0,3109.489,508h8.866a14.088,14.088,0,0,0,7.261-2.093l-.294,2.093h5.7l1.78-12.667,1.691-12.033.445-3.167h0A9.224,9.224,0,0,0,3134.819,476.894ZM3127.992,489l-.356,2.533-.534,3.8a8.3,8.3,0,0,1-7.946,6.967h-8.867a3.767,3.767,0,0,1-3.81-4.433l.623-4.433a5.281,5.281,0,0,1,5.057-4.433h12.667a9.518,9.518,0,0,0,3.249-.582Z" transform="translate(-2914.388 -460.5)"/><path class="c" d="M3002.283,470h-11.4a12.056,12.056,0,0,0-11.558,10.133l-2.492,17.733A8.6,8.6,0,0,0,2985.542,508h8.867a14.089,14.089,0,0,0,7.261-2.093l-1.63,11.593h5.7l3.115-22.167,1.246-8.867.89-6.333A8.6,8.6,0,0,0,3002.283,470Zm.873,25.333a8.3,8.3,0,0,1-7.946,6.967h-8.867a3.767,3.767,0,0,1-3.81-4.433l2.492-17.733a5.281,5.281,0,0,1,5.057-4.433h11.4a3.767,3.767,0,0,1,3.81,4.433l-.891,6.333Z" transform="translate(-2868.941 -460.5)"/><path class="c" d="M2940.229,470h-11.4a12.056,12.056,0,0,0-11.557,10.133l-.845,6.017-.8,5.7-.845,6.017A8.6,8.6,0,0,0,2923.489,508h11.4a12.056,12.056,0,0,0,11.558-10.133l.044-.317h-5.7l-.044.317a5.281,5.281,0,0,1-5.056,4.433h-11.4a3.767,3.767,0,0,1-3.81-4.433l.846-6.017h25.967l.8-5.7.846-6.017A8.6,8.6,0,0,0,2940.229,470Zm-18.1,16.15.845-6.017a5.281,5.281,0,0,1,5.057-4.433h11.4a3.767,3.767,0,0,1,3.81,4.433l-.845,6.017Z" transform="translate(-2846.188 -460.5)"/><path class="c" d="M2878.229,470h-11.4a12.055,12.055,0,0,0-11.557,10.133l-.845,6.017-.8,5.7-.845,6.017A8.6,8.6,0,0,0,2861.489,508h11.4a12.056,12.056,0,0,0,11.558-10.133l.044-.317h-5.7l-.044.317a5.281,5.281,0,0,1-5.056,4.433h-11.4a3.767,3.767,0,0,1-3.81-4.433l.846-6.017h25.967l.8-5.7.846-6.017A8.6,8.6,0,0,0,2878.229,470Zm-18.1,16.15.845-6.017a5.281,5.281,0,0,1,5.057-4.433h11.4a3.767,3.767,0,0,1,3.81,4.433l-.845,6.017Z" transform="translate(-2823.454 -460.5)"/><path class="c" d="M2832.211,455h-12.667l-.89,6.333h6.333l-3.026,21.533L2820.8,491.1a6.036,6.036,0,0,1-5.779,5.067h-7.6l-.89,6.333h7.6a13.563,13.563,0,0,0,13-11.4l4.183-29.767h0Z" transform="translate(-2806.535 -455)"/></g></g></svg>