<svg xmlns="http://www.w3.org/2000/svg" xmlns:xlink="http://www.w3.org/1999/xlink" width="86.211" height="26" viewBox="0 0 86.211 26"><defs><clipPath id="a"><rect width="86.211" height="26" transform="translate(0 0)" fill="#1953ff"/></clipPath><clipPath id="b"><rect width="28.483" height="26" fill="#1953ff"/></clipPath></defs><g transform="translate(-3021.041 -1755)"><g transform="translate(3021.041 1755)" clip-path="url(#a)"><g transform="translate(35.626 2.889)"><path d="M3186.573,1772.511h-6.645l1.056-7.511h-2.311l-1.056,7.511h-6.645l-.325,2.311h6.645l-1.868,13.289h2.311l1.868-13.289h6.645Z" transform="translate(-3163.055 -1765)" fill="#1953ff"/><path d="M3148.359,1802.465l1.286-9.154.325-2.311h-5.2l-.325,2.311h2.889l-1.474,10.488-1.5.8.874,2,6.566-3.507-.874-2Z" transform="translate(-3144.363 -1783.489)" fill="#1953ff"/><path d="M3157.48,1768.181l-4.038-3.181-1.6,1.885,4.038,3.181Z" transform="translate(-3149.68 -1765)" fill="#1953ff"/><g transform="translate(26.526)"><path d="M3248.592,1804.089h6.933l.325-2.311h-6.934l.487-3.467h6.067l.325-2.311h-14.445l-.325,2.311h6.067l-.487,3.467h-6.933l-.325,2.311h6.933l-.528,3.756h-9.245l-.325,2.311h20.8l.325-2.311h-9.245Z" transform="translate(-3236.184 -1787.044)" fill="#1953ff"/><path d="M3246.667,1771.177c1.845-1.241,3.557-2.484,5.152-3.708,1.251,1.224,2.613,2.467,4.109,3.708,1.753,1.454,3.478,2.734,5.135,3.861l1.514-1.894c-1.7-1.163-3.467-2.482-5.263-3.978-1.673-1.395-3.193-2.795-4.569-4.166l0,0v0h-1.156v0c-1.761,1.371-3.674,2.771-5.74,4.166-2.216,1.5-4.354,2.815-6.381,3.978l.981,1.894C3242.42,1773.911,3244.5,1772.631,3246.667,1771.177Z" transform="translate(-3238.517 -1765)" fill="#1953ff"/></g></g><g transform="translate(0 0)"><g clip-path="url(#b)"><path d="M3033.971,1822.5h0l-3.714,3.257a1.851,1.851,0,0,0,1.22,3.243h6.667a.649.649,0,0,0,.492-1.072Z" transform="translate(-3027.144 -1803)" fill="#1953ff" opacity="0.5"/><path d="M3023.638,1758.357l-2.558,18.2a3.9,3.9,0,0,0,3.862,4.443h1.449a.65.65,0,0,0,.643-.559l.678-4.823A1.3,1.3,0,0,1,3029,1774.5h4.242a1.3,1.3,0,0,0,1.287-1.118l.6-4.263a1.3,1.3,0,0,1,1.287-1.119h3.875a1.3,1.3,0,0,1,1.287,1.481l-.705,5.019-.81,5.761a.648.648,0,0,0,.642.739h2.364a3.9,3.9,0,0,0,3.862-3.357l2.558-18.2a3.9,3.9,0,0,0-3.862-4.442H3027.5A3.9,3.9,0,0,0,3023.638,1758.357Zm17.471,6.393h-3.873a1.3,1.3,0,0,1-1.288-1.482l.548-3.9a1.3,1.3,0,0,1,1.289-1.12h3.872a1.3,1.3,0,0,1,1.289,1.482l-.548,3.9A1.3,1.3,0,0,1,3041.108,1764.75Z" transform="translate(-3021.041 -1755)" fill="#1953ff"/></g></g></g></g></svg>