<svg xmlns="http://www.w3.org/2000/svg" xmlns:xlink="http://www.w3.org/1999/xlink" width="40" height="40" viewBox="0 0 40 40">
  <defs>
    <clipPath id="clip-path">
      <rect id="矩形_3796" data-name="矩形 3796" width="17" height="20" transform="translate(7694 5293)" fill="#fff" stroke="#707070" stroke-width="1"/>
    </clipPath>
  </defs>
  <g id="PayPal" transform="translate(-7454 -5095)">
    <path id="路径_4159" data-name="路径 4159" d="M190.218,137.3l-.02-.02-.02-.02c-1.442-1.442-3.6-2.176-6.511-2.561a91.682,91.682,0,0,0-10.426-.453,91.64,91.64,0,0,0-10.426.453c-2.929.387-5.089,1.126-6.531,2.582s-2.2,3.6-2.581,6.531a91.665,91.665,0,0,0-.453,10.426,91.651,91.651,0,0,0,.453,10.426c.385,2.916,1.12,5.069,2.562,6.511l.02.02.02.02c1.442,1.442,3.6,2.176,6.511,2.561a91.679,91.679,0,0,0,10.426.453,91.64,91.64,0,0,0,10.426-.453c2.929-.387,5.089-1.126,6.531-2.582s2.2-3.6,2.581-6.531a91.69,91.69,0,0,0,.453-10.426,91.64,91.64,0,0,0-.453-10.426c-.385-2.916-1.12-5.069-2.562-6.511Z" transform="translate(7300.76 4960.764)" fill="#c3cbe6"/>
    <path id="矩形_2559" data-name="矩形 2559" d="M1,0H11a1,1,0,0,1,1,1V4H0V1A1,1,0,0,1,1,0Z" transform="translate(7468.001 5109.007)" fill="#e60012"/>
    <g id="蒙版组_330" data-name="蒙版组 330" transform="translate(-228.5 -188)" clip-path="url(#clip-path)">
      <g id="组_1372" data-name="组 1372" transform="translate(7694 5293)">
        <path id="路径_11885" data-name="路径 11885" d="M302.719,129.325l.345-2.136H298.75l2.416-15.7c0-.058,0-.058.057-.173a.252.252,0,0,1,.173-.058h5.983c2.013,0,3.337.462,4.084,1.27a4.157,4.157,0,0,1,.69,1.212,8.721,8.721,0,0,1,0,1.732v.519l.345.173a3.1,3.1,0,0,1,.69.519,2.356,2.356,0,0,1,.575,1.27,6.219,6.219,0,0,1-.058,1.789,6.092,6.092,0,0,1-.748,2.02,3.2,3.2,0,0,1-1.208,1.27,7.716,7.716,0,0,1-1.553.75,7.418,7.418,0,0,1-1.9.231h-.69a1.419,1.419,0,0,0-1.381,1.212v.231l-.575,3.694v.173a.056.056,0,0,1-.057.058h-.058a22.977,22.977,0,0,0-2.819-.058Z" transform="translate(-298.051 -110.452)" fill="#253b80"/>
        <path id="路径_11886" data-name="路径 11886" d="M420.32,248.293c0,.173-.058.231-.058.4-.863,4.329-3.624,5.714-7.191,5.714H411.23a.865.865,0,0,0-.863.75l-.92,6-.23,1.732c-.058.231.173.462.4.519h3.337a.752.752,0,0,0,.748-.693v-.173l.633-3.925.058-.231a.8.8,0,0,1,.748-.693h.46c3.164,0,5.523-1.328,6.328-5.021.288-1.558.173-2.886-.633-3.752a5.7,5.7,0,0,0-.978-.635Z" transform="translate(-405.066 -243.214)" fill="#179bd7"/>
        <path id="路径_11887" data-name="路径 11887" d="M459.074,228.212c-.173,0-.23-.058-.4-.058s-.288-.058-.4-.058a15.249,15.249,0,0,0-1.611-.173h-4.832a.752.752,0,0,0-.748.693l-.978,6.637v.173a.865.865,0,0,1,.863-.75H452.8c3.567,0,6.386-1.443,7.191-5.714,0-.173.057-.231.057-.4-.23-.058-.46-.231-.69-.289l-.288-.058Z" transform="translate(-444.684 -223.479)" fill="#222d65"/>
        <path id="路径_11888" data-name="路径 11888" d="M282.712,90.528a.8.8,0,0,1,.748-.693h4.832a5.112,5.112,0,0,1,1.611.173c.173,0,.288.058.4.058.173,0,.23.058.4.058l.173.058a3.516,3.516,0,0,1,.69.289,3.938,3.938,0,0,0-.863-3.578c-.92-1.1-2.646-1.558-4.775-1.558h-6.213a.866.866,0,0,0-.863.75l-2.531,16.507c-.057.289.173.52.46.635H280.7l.978-6.118c.058,0,1.035-6.58,1.035-6.58Z" transform="translate(-276.318 -85.333)" fill="#253b80"/>
      </g>
    </g>
  </g>
</svg>
