<svg xmlns="http://www.w3.org/2000/svg" xmlns:xlink="http://www.w3.org/1999/xlink" width="40" height="40" viewBox="0 0 40 40">
  <defs>
    <clipPath id="clip-path">
      <rect id="矩形_2573" data-name="矩形 2573" width="22" height="17.991" transform="translate(0 0)" fill="#fff"/>
    </clipPath>
  </defs>
  <g id="微信APP" transform="translate(-6475 -11757)">
    <path id="路径_4159" data-name="路径 4159" d="M190.234,137.3l-.02-.02-.02-.02c-1.443-1.443-3.6-2.177-6.514-2.562a91.718,91.718,0,0,0-10.431-.453,91.681,91.681,0,0,0-10.431.453c-2.93.387-5.091,1.126-6.534,2.583s-2.2,3.6-2.582,6.534a91.7,91.7,0,0,0-.453,10.431,91.682,91.682,0,0,0,.453,10.431c.385,2.917,1.12,5.071,2.563,6.514l.02.02.02.02c1.443,1.443,3.6,2.177,6.514,2.562a91.714,91.714,0,0,0,10.431.453,91.681,91.681,0,0,0,10.431-.453c2.93-.387,5.091-1.126,6.534-2.583s2.2-3.6,2.582-6.534a91.729,91.729,0,0,0,.453-10.431,91.681,91.681,0,0,0-.453-10.431c-.385-2.917-1.12-5.071-2.563-6.514Z" transform="translate(6321.75 11622.75)" fill="#04c361"/>
    <g id="组_1004" data-name="组 1004" transform="translate(5596.355 11342.004)">
      <g id="组_1003" data-name="组 1003" transform="translate(887.645 426)" clip-path="url(#clip-path)">
        <g id="组_1002" data-name="组 1002" transform="translate(0 0)">
          <path id="路径_4166" data-name="路径 4166" d="M902.538,431.443a7.021,7.021,0,0,1,.75.046c-.674-3.148-4.029-5.489-7.856-5.489-4.28,0-7.787,2.929-7.787,6.649a6.413,6.413,0,0,0,3.115,5.276l-.778,2.352,2.722-1.371a13.241,13.241,0,0,0,2.727.393c.244,0,.486-.013.727-.032a5.84,5.84,0,0,1-.241-1.637,6.388,6.388,0,0,1,6.619-6.187Zm-4.187-2.12a.977.977,0,0,1,0,1.955.993.993,0,1,1,0-1.955Zm-5.449,1.955a.994.994,0,1,1,0-1.955.977.977,0,0,1,0,1.955Zm16.742,6.259c0-3.126-3.115-5.674-6.614-5.674-3.7,0-6.623,2.547-6.623,5.674s2.918,5.671,6.623,5.671a9.732,9.732,0,0,0,2.335-.391l2.136,1.175-.586-1.954a5.926,5.926,0,0,0,2.729-4.5Zm-8.761-.978a.782.782,0,0,1,0-1.564.8.8,0,1,1,0,1.564Zm4.283,0a.782.782,0,0,1,0-1.564.8.8,0,1,1,0,1.564Zm0,0" transform="translate(-887.645 -426)" fill="#fff"/>
        </g>
      </g>
    </g>
  </g>
</svg>
