<svg xmlns="http://www.w3.org/2000/svg" width="40" height="40" viewBox="0 0 40 40">
  <g id="微信H5" transform="translate(-6475 -11807)">
    <path id="路径_4159" data-name="路径 4159" d="M190.234,137.3l-.02-.02-.02-.02c-1.443-1.443-3.6-2.177-6.514-2.562a91.718,91.718,0,0,0-10.431-.453,91.681,91.681,0,0,0-10.431.453c-2.93.387-5.091,1.126-6.534,2.583s-2.2,3.6-2.582,6.534a91.7,91.7,0,0,0-.453,10.431,91.682,91.682,0,0,0,.453,10.431c.385,2.917,1.12,5.071,2.563,6.514l.02.02.02.02c1.443,1.443,3.6,2.177,6.514,2.562a91.714,91.714,0,0,0,10.431.453,91.681,91.681,0,0,0,10.431-.453c2.93-.387,5.091-1.126,6.534-2.583s2.2-3.6,2.582-6.534a91.729,91.729,0,0,0,.453-10.431,91.681,91.681,0,0,0-.453-10.431c-.385-2.917-1.12-5.071-2.563-6.514Z" transform="translate(6321.75 11672.75)" fill="#04c361"/>
    <path id="减去_3" data-name="减去 3" d="M18,20H2a2,2,0,0,1-2-2V2A2,2,0,0,1,2,0H18a2,2,0,0,1,2,2V18A2,2,0,0,1,18,20ZM2.25,1.5a.751.751,0,0,0-.75.75v15.5a.751.751,0,0,0,.75.751h15.5a.751.751,0,0,0,.751-.751V2.25a.751.751,0,0,0-.751-.75Z" transform="translate(6485 11817)" fill="#fff"/>
    <path id="联合_44" data-name="联合 44" d="M7,10V5.75H1.5V10H0V0H1.5V4.25H7V0H8.5V10Z" transform="translate(6490.75 11822)" fill="#fff"/>
  </g>
</svg>
