<svg xmlns="http://www.w3.org/2000/svg" width="40" height="40" viewBox="0 0 40 40">
  <g id="公众号_小程序" data-name="公众号&amp;小程序" transform="translate(-6475 -11707)">
    <path id="路径_4159" data-name="路径 4159" d="M190.234,137.3l-.02-.02-.02-.02c-1.443-1.443-3.6-2.177-6.514-2.562a91.718,91.718,0,0,0-10.431-.453,91.681,91.681,0,0,0-10.431.453c-2.93.387-5.091,1.126-6.534,2.583s-2.2,3.6-2.582,6.534a91.7,91.7,0,0,0-.453,10.431,91.682,91.682,0,0,0,.453,10.431c.385,2.917,1.12,5.071,2.563,6.514l.02.02.02.02c1.443,1.443,3.6,2.177,6.514,2.562a91.714,91.714,0,0,0,10.431.453,91.681,91.681,0,0,0,10.431-.453c2.93-.387,5.091-1.126,6.534-2.583s2.2-3.6,2.582-6.534a91.729,91.729,0,0,0,.453-10.431,91.681,91.681,0,0,0-.453-10.431c-.385-2.917-1.12-5.071-2.563-6.514Z" transform="translate(6321.75 11572.75)" fill="#04c361"/>
    <path id="路径_4165" data-name="路径 4165" d="M738.834,343.512a3.3,3.3,0,0,0-3.269,3.333v3.333a2.193,2.193,0,1,1-2.193-2.208v-1.125a3.334,3.334,0,1,0,3.269,3.333v-3.333a2.193,2.193,0,1,1,2.193,2.208v1.125a3.334,3.334,0,0,0,0-6.667Zm0,0" transform="translate(5758.897 11378.488)" fill="#fff" stroke="#fff" stroke-width="0.5"/>
    <path id="减去_2" data-name="减去 2" d="M11,22A11,11,0,0,1,3.222,3.222,11,11,0,1,1,18.778,18.778,10.928,10.928,0,0,1,11,22ZM11,1.5A9.5,9.5,0,1,0,20.5,11,9.51,9.51,0,0,0,11,1.5Z" transform="translate(6484 11716)" fill="#fff"/>
  </g>
</svg>
