<svg xmlns="http://www.w3.org/2000/svg" width="76" height="76" viewBox="0 0 76 76"><defs><style>.a{fill:#ccced1;}</style></defs><path class="a" d="M-1198-1084a6.007,6.007,0,0,1-6-6v-64a6.007,6.007,0,0,1,6-6h64a6.007,6.007,0,0,1,6,6v64a6.006,6.006,0,0,1-6,6Zm-4-70v64a4,4,0,0,0,4,4h64a4,4,0,0,0,4-4v-64a4,4,0,0,0-4-4h-64A4.005,4.005,0,0,0-1202-1154Zm35,47v-14h-14a1,1,0,0,1-1-1,1,1,0,0,1,1-1h14v-14a1,1,0,0,1,1-1,1,1,0,0,1,1,1v14h14a1,1,0,0,1,1,1,1,1,0,0,1-1,1h-14v14a1,1,0,0,1-1,1A1,1,0,0,1-1167-1107Z" transform="translate(1204 1160)"/></svg>