<svg xmlns="http://www.w3.org/2000/svg" xmlns:xlink="http://www.w3.org/1999/xlink" width="62.667" height="16" viewBox="0 0 62.667 16"><defs><style>.a{fill:#262626;}.b{clip-path:url(#a);}</style><clipPath id="a"><rect class="a" width="62.667" height="16"/></clipPath></defs><g transform="translate(-686.73 -2076)"><g class="b" transform="translate(686.73 2076)"><path class="a" d="M930.451,2092.935a2.5,2.5,0,0,0-2.543-1.935h-5.479l-.225,1.6h5.367a1.366,1.366,0,0,1,1.082.476,1.014,1.014,0,0,1-.781,1.657h-3.554a3.383,3.383,0,0,0-3.243,2.844l-.175,1.245a2.414,2.414,0,0,0,2.443,2.845h2.488a3.952,3.952,0,0,0,2.037-.588l-.082.588h1.6l.5-3.556.474-3.378.125-.889h0A2.585,2.585,0,0,0,930.451,2092.935Zm-1.915,3.4-.1.711-.15,1.067a2.329,2.329,0,0,1-2.229,1.956h-2.488a1.057,1.057,0,0,1-1.069-1.244l.175-1.245a1.482,1.482,0,0,1,1.419-1.244h3.554a2.665,2.665,0,0,0,.911-.163Z" transform="translate(-879.269 -2088.333)"/><path class="a" d="M802.041,2091h-3.2a3.383,3.383,0,0,0-3.242,2.844l-.237,1.689-.225,1.6-.237,1.689a2.414,2.414,0,0,0,2.443,2.845h3.2a3.383,3.383,0,0,0,3.242-2.845l.013-.089h-1.6l-.013.089a1.482,1.482,0,0,1-1.418,1.244h-3.2a1.057,1.057,0,0,1-1.069-1.244l.237-1.689h7.285l.225-1.6.237-1.689A2.414,2.414,0,0,0,802.041,2091Zm-5.079,4.533.237-1.689a1.482,1.482,0,0,1,1.419-1.244h3.2a1.057,1.057,0,0,1,1.069,1.244l-.237,1.689Z" transform="translate(-775.657 -2088.333)"/><path class="a" d="M740.041,2091h-3.2a3.383,3.383,0,0,0-3.242,2.844l-.237,1.689-.225,1.6-.237,1.689a2.415,2.415,0,0,0,2.444,2.845h3.2a3.383,3.383,0,0,0,3.242-2.845l.013-.089h-1.6l-.013.089a1.482,1.482,0,0,1-1.418,1.244h-3.2a1.057,1.057,0,0,1-1.069-1.244l.237-1.689h7.285l.225-1.6.237-1.689A2.414,2.414,0,0,0,740.041,2091Zm-5.079,4.533.237-1.689a1.482,1.482,0,0,1,1.418-1.244h3.2a1.057,1.057,0,0,1,1.069,1.244l-.237,1.689Z" transform="translate(-724.674 -2088.333)"/><path class="a" d="M693.933,2076H690.38l-.25,1.778h1.777l-.849,6.044-.325,2.311a1.694,1.694,0,0,1-1.621,1.423H686.98l-.25,1.777h2.132a3.806,3.806,0,0,0,3.648-3.2l1.174-8.355h0Z" transform="translate(-686.73 -2076)"/><path class="a" d="M990.5,2091l-.225,1.6-.325,2.311-.474,3.377-.075.533a1.482,1.482,0,0,1-1.418,1.244h-3.2a1.057,1.057,0,0,1-1.069-1.244l.549-3.911.325-2.311.225-1.6h-1.6l-1.1,7.822a2.414,2.414,0,0,0,2.443,2.845h3.2a3.094,3.094,0,0,0,1.284-.29l-.041.29a1.268,1.268,0,0,1-1.216,1.066H982.1l-.225,1.6h5.686a3.171,3.171,0,0,0,3.04-2.666l.4-2.845.075-.533L992.1,2091Z" transform="translate(-929.43 -2088.333)"/><path class="a" d="M862.644,2091h-3.2a3.094,3.094,0,0,0-1.285.29l.041-.29h-1.6l-.4,2.844-.7,4.978-.774,5.511h1.6l.415-2.956a2.574,2.574,0,0,0,1.2.29h3.2a3.383,3.383,0,0,0,3.242-2.845l.7-4.978A2.414,2.414,0,0,0,862.644,2091Zm.145,7.822a1.482,1.482,0,0,1-1.419,1.244h-3.2a1.057,1.057,0,0,1-1.069-1.244l.7-4.978a1.482,1.482,0,0,1,1.418-1.244h3.2a1.057,1.057,0,0,1,1.069,1.244Z" transform="translate(-824.879 -2088.333)"/></g></g></svg>