<svg xmlns="http://www.w3.org/2000/svg" width="20.001" height="20" viewBox="0 0 20.001 20"><defs><style>.a{fill:#252626;}</style></defs><path class="a" d="M-3862-1142a3,3,0,0,1-3-3v-14a3,3,0,0,1,3-3h14a3,3,0,0,1,3,3v14a3,3,0,0,1-3,3Zm-1-17v14a1,1,0,0,0,1,1h14a1,1,0,0,0,1-1v-14a1,1,0,0,0-1-1h-14A1,1,0,0,0-3863-1159Zm11,12v-2a1,1,0,0,1,1-1,1,1,0,0,1,1,1v2a1,1,0,0,1-1,1A1,1,0,0,1-3852-1147Zm-4,0v-10a1,1,0,0,1,1-1,1,1,0,0,1,1,1v10a1,1,0,0,1-1,1A1,1,0,0,1-3856-1147Zm-4,0v-7a1,1,0,0,1,1-1,1,1,0,0,1,1,1v7a1,1,0,0,1-1,1A1,1,0,0,1-3860-1147Z" transform="translate(3865 1162)"/></svg>