<svg xmlns="http://www.w3.org/2000/svg" xmlns:xlink="http://www.w3.org/1999/xlink" width="14" height="14" viewBox="0 0 14 14"><defs><style>.a,.b{fill:#1a53ff;}.a{stroke:#707070;}.c{clip-path:url(#a);}.d{clip-path:url(#b);}</style><clipPath id="a"><rect class="a" width="14" height="14" transform="translate(786 458)"/></clipPath><clipPath id="b"><rect class="b" width="11" height="14"/></clipPath></defs><g class="c" transform="translate(-786 -458)"><g transform="translate(155.5 328)"><g transform="translate(632 130)"><g class="d" transform="translate(0)"><path class="b" d="M636.689,140.115V141.7a.687.687,0,1,0,1.374,0v-1.584a1.4,1.4,0,0,0,.687-1.21,1.374,1.374,0,1,0-2.748,0,1.4,1.4,0,0,0,.687,1.21Zm-2.061-4.7v-2.1a2.748,2.748,0,1,1,5.5,0v2.1H641.5a1.386,1.386,0,0,1,1.374,1.4V143.1a1.386,1.386,0,0,1-1.374,1.4h-8.243a1.386,1.386,0,0,1-1.374-1.4v-6.288a1.386,1.386,0,0,1,1.374-1.4Zm2.748-3.493a1.386,1.386,0,0,0-1.374,1.4v2.1h2.748v-2.1a1.386,1.386,0,0,0-1.374-1.4Zm0,0" transform="translate(-631.882 -130.511)"/></g></g></g></g></svg>