<svg xmlns="http://www.w3.org/2000/svg" xmlns:xlink="http://www.w3.org/1999/xlink" width="14" height="14" viewBox="0 0 14 14"><defs><style>.a,.b{fill:#1a53ff;}.a{stroke:#707070;}.c{clip-path:url(#a);}.d{clip-path:url(#b);}</style><clipPath id="a"><rect class="a" width="14" height="14" transform="translate(793 387)"/></clipPath><clipPath id="b"><rect class="b" width="13" height="14" transform="translate(0 0)"/></clipPath></defs><g class="c" transform="translate(-793 -387)"><g transform="translate(216.5 256)"><g class="d" transform="translate(577 131)"><path class="b" d="M740.84,134.733A3.714,3.714,0,1,0,744.554,131a3.724,3.724,0,0,0-3.714,3.733Zm0,0" transform="translate(-738.054 -131)"/><path class="b" d="M581.643,622.52h3.714a4.631,4.631,0,0,1,3.283,1.367,4.679,4.679,0,0,1,1.36,3.3v.933H577v-.933a4.679,4.679,0,0,1,1.36-3.3,4.631,4.631,0,0,1,3.283-1.367Zm0,0" transform="translate(-577 -614.12)"/></g></g></g></svg>